<mxfile host="Electron" modified="2024-05-30T11:41:56.370Z" agent="Mozilla/5.0 (Macintosh; Intel Mac OS X 10_15_7) AppleWebKit/537.36 (KHTML, like Gecko) draw.io/24.2.5 Chrome/120.0.6099.109 Electron/28.1.0 Safari/537.36" etag="URkmwL1qAOR_Jaz2d6iU" version="24.2.5" type="device">
  <diagram name="第 1 页" id="-Na6s5mS7PVY9AblPTO9">
    <mxGraphModel dx="1311" dy="1033" grid="1" gridSize="10" guides="1" tooltips="1" connect="1" arrows="1" fold="1" page="1" pageScale="1" pageWidth="827" pageHeight="1169" math="1" shadow="0">
      <root>
        <mxCell id="0" />
        <mxCell id="1" parent="0" />
        <mxCell id="Zlv9bYPHOYVSG-MM0NKb-69" value="" style="rounded=1;whiteSpace=wrap;html=1;strokeWidth=3;arcSize=0;fillStyle=auto;" parent="1" vertex="1">
          <mxGeometry x="499" y="1047" width="364" height="160" as="geometry" />
        </mxCell>
        <mxCell id="Zlv9bYPHOYVSG-MM0NKb-70" value="&lt;h1 style=&quot;margin-top: 0px; font-size: 21px;&quot;&gt;&lt;font style=&quot;font-size: 21px;&quot;&gt;Tutorial Books&lt;/font&gt;&lt;/h1&gt;" style="text;html=1;whiteSpace=wrap;overflow=hidden;rounded=0;align=center;fontSize=21;fontFamily=Times New Roman;" parent="1" vertex="1">
          <mxGeometry x="498" y="1047" width="170" height="30" as="geometry" />
        </mxCell>
        <mxCell id="Zlv9bYPHOYVSG-MM0NKb-71" value="" style="rounded=1;whiteSpace=wrap;html=1;strokeWidth=4;arcSize=9;fillColor=#f5f5f5;strokeColor=#666666;fontColor=#333333;fillStyle=auto;glass=0;shadow=1;" parent="1" vertex="1">
          <mxGeometry x="688" y="790" width="471" height="240" as="geometry" />
        </mxCell>
        <mxCell id="Zlv9bYPHOYVSG-MM0NKb-72" value="&lt;h1 style=&quot;margin-top: 0px; font-size: 20px;&quot;&gt;&lt;font style=&quot;font-size: 20px;&quot;&gt;(A) Stage1: Understanding&lt;/font&gt;&lt;/h1&gt;" style="text;html=1;whiteSpace=wrap;overflow=hidden;rounded=0;align=center;fontSize=20;" parent="1" vertex="1">
          <mxGeometry x="695" y="788" width="313" height="30" as="geometry" />
        </mxCell>
        <mxCell id="Zlv9bYPHOYVSG-MM0NKb-283" style="edgeStyle=orthogonalEdgeStyle;rounded=0;orthogonalLoop=1;jettySize=auto;html=1;entryX=0.5;entryY=1;entryDx=0;entryDy=0;strokeWidth=2;fillColor=#ffe6cc;strokeColor=#d79b00;" parent="1" source="Zlv9bYPHOYVSG-MM0NKb-74" target="Zlv9bYPHOYVSG-MM0NKb-77" edge="1">
          <mxGeometry relative="1" as="geometry" />
        </mxCell>
        <mxCell id="Zlv9bYPHOYVSG-MM0NKb-74" value="Knowledge Extractor&lt;div style=&quot;font-size: 19px;&quot;&gt;&lt;br style=&quot;font-size: 19px;&quot;&gt;&lt;/div&gt;" style="rounded=1;whiteSpace=wrap;html=1;arcSize=14;strokeWidth=4;fontSize=19;strokeColor=#d79b00;align=center;verticalAlign=middle;fontFamily=Times New Roman;fillColor=#ffe6cc;" parent="1" vertex="1">
          <mxGeometry x="708" y="950" width="186" height="60" as="geometry" />
        </mxCell>
        <mxCell id="Zlv9bYPHOYVSG-MM0NKb-75" value="" style="endArrow=blockThin;html=1;rounded=0;entryX=0.5;entryY=1;entryDx=0;entryDy=0;strokeWidth=3;fillColor=#e1d5e7;strokeColor=#000000;startArrow=oval;startFill=1;endFill=1;dashed=1;dashPattern=1 1;flowAnimation=0;shadow=0;" parent="1" target="Zlv9bYPHOYVSG-MM0NKb-74" edge="1">
          <mxGeometry width="50" height="50" relative="1" as="geometry">
            <mxPoint x="801" y="1050" as="sourcePoint" />
            <mxPoint x="640" y="1060" as="targetPoint" />
          </mxGeometry>
        </mxCell>
        <mxCell id="Zlv9bYPHOYVSG-MM0NKb-76" style="edgeStyle=orthogonalEdgeStyle;rounded=0;orthogonalLoop=1;jettySize=auto;html=1;entryX=0;entryY=0.5;entryDx=0;entryDy=0;strokeWidth=2;fillColor=#ffe6cc;strokeColor=#d79b00;" parent="1" target="Zlv9bYPHOYVSG-MM0NKb-79" edge="1">
          <mxGeometry relative="1" as="geometry">
            <mxPoint x="868.0000000000002" y="864.5294117647059" as="sourcePoint" />
          </mxGeometry>
        </mxCell>
        <mxCell id="Zlv9bYPHOYVSG-MM0NKb-77" value="&lt;p style=&quot;margin-top: 0px; line-height: 50%;&quot;&gt;&lt;br&gt;&lt;/p&gt;&lt;p&gt;&lt;/p&gt;" style="text;html=1;whiteSpace=wrap;overflow=hidden;rounded=0;strokeColor=none;align=center;fillColor=#e1d5e7;" parent="1" vertex="1">
          <mxGeometry x="704.5" y="835" width="193.5" height="75" as="geometry" />
        </mxCell>
        <mxCell id="Zlv9bYPHOYVSG-MM0NKb-282" style="edgeStyle=orthogonalEdgeStyle;rounded=0;orthogonalLoop=1;jettySize=auto;html=1;entryX=0.5;entryY=0;entryDx=0;entryDy=0;strokeWidth=2;fillColor=#ffe6cc;strokeColor=#d79b00;" parent="1" source="Zlv9bYPHOYVSG-MM0NKb-79" target="Zlv9bYPHOYVSG-MM0NKb-80" edge="1">
          <mxGeometry relative="1" as="geometry" />
        </mxCell>
        <mxCell id="Zlv9bYPHOYVSG-MM0NKb-79" value="Knowledge Aggregator&lt;div style=&quot;font-size: 19px;&quot;&gt;&lt;br style=&quot;font-size: 19px;&quot;&gt;&lt;/div&gt;" style="rounded=1;whiteSpace=wrap;html=1;arcSize=14;strokeWidth=4;fontSize=19;strokeColor=#d79b00;align=center;verticalAlign=middle;fontFamily=Times New Roman;fillColor=#ffe6cc;fillStyle=solid;" parent="1" vertex="1">
          <mxGeometry x="936" y="835" width="196" height="60" as="geometry" />
        </mxCell>
        <mxCell id="Zlv9bYPHOYVSG-MM0NKb-80" value="&lt;p style=&quot;margin-top: 0px; line-height: 50%;&quot;&gt;&lt;br&gt;&lt;/p&gt;&lt;p&gt;&lt;/p&gt;" style="text;html=1;whiteSpace=wrap;overflow=hidden;rounded=0;strokeColor=none;align=center;fillColor=#e1d5e7;" parent="1" vertex="1">
          <mxGeometry x="928" y="920" width="211" height="70" as="geometry" />
        </mxCell>
        <mxCell id="Zlv9bYPHOYVSG-MM0NKb-81" value="" style="rounded=1;whiteSpace=wrap;html=1;strokeWidth=4;arcSize=9;fillColor=#f5f5f5;fontColor=#333333;strokeColor=#666666;fillStyle=auto;shadow=1;" parent="1" vertex="1">
          <mxGeometry x="889" y="1040" width="751" height="337" as="geometry" />
        </mxCell>
        <mxCell id="Zlv9bYPHOYVSG-MM0NKb-82" value="&lt;h1 style=&quot;margin-top: 0px; font-size: 20px;&quot;&gt;&lt;font style=&quot;font-size: 20px;&quot;&gt;(B) Stage2: Rehearsing&lt;/font&gt;&lt;/h1&gt;" style="text;html=1;whiteSpace=wrap;overflow=hidden;rounded=0;align=center;fontSize=20;" parent="1" vertex="1">
          <mxGeometry x="1018" y="1040" width="271" height="30" as="geometry" />
        </mxCell>
        <mxCell id="Zlv9bYPHOYVSG-MM0NKb-90" value="" style="rounded=1;whiteSpace=wrap;html=1;strokeWidth=3;arcSize=0;fillStyle=auto;" parent="1" vertex="1">
          <mxGeometry x="499" y="1220" width="364" height="159" as="geometry" />
        </mxCell>
        <mxCell id="Zlv9bYPHOYVSG-MM0NKb-91" value="&lt;h1 style=&quot;margin-top: 0px; font-size: 21px;&quot;&gt;&lt;font style=&quot;font-size: 21px;&quot;&gt;Simulator Information&lt;/font&gt;&lt;/h1&gt;" style="text;html=1;whiteSpace=wrap;overflow=hidden;rounded=0;align=center;fontSize=21;fontFamily=Times New Roman;" parent="1" vertex="1">
          <mxGeometry x="505" y="1220" width="220" height="30" as="geometry" />
        </mxCell>
        <mxCell id="Zlv9bYPHOYVSG-MM0NKb-95" value="" style="rounded=1;whiteSpace=wrap;html=1;strokeWidth=4;arcSize=9;fillColor=#f5f5f5;fontColor=#333333;strokeColor=#666666;fillStyle=auto;shadow=1;" parent="1" vertex="1">
          <mxGeometry x="1179" y="790" width="369" height="240" as="geometry" />
        </mxCell>
        <mxCell id="Zlv9bYPHOYVSG-MM0NKb-96" value="&lt;h1 style=&quot;margin-top: 0px; font-size: 20px;&quot;&gt;&lt;font style=&quot;font-size: 20px;&quot;&gt;(C) Stage3: Introspecting&lt;/font&gt;&lt;/h1&gt;" style="text;html=1;whiteSpace=wrap;overflow=hidden;rounded=0;align=center;fontSize=20;" parent="1" vertex="1">
          <mxGeometry x="1179" y="788" width="293" height="30" as="geometry" />
        </mxCell>
        <mxCell id="jUXCTBX1vc5QMKHOYlBD-35" style="rounded=0;orthogonalLoop=1;jettySize=auto;html=1;entryX=0.344;entryY=0.971;entryDx=0;entryDy=0;fillColor=#d5e8d4;strokeColor=#82b366;strokeWidth=3;entryPerimeter=0;" parent="1" source="Zlv9bYPHOYVSG-MM0NKb-101" target="jUXCTBX1vc5QMKHOYlBD-33" edge="1">
          <mxGeometry relative="1" as="geometry" />
        </mxCell>
        <mxCell id="Zlv9bYPHOYVSG-MM0NKb-101" value="&lt;font style=&quot;font-size: 17px;&quot;&gt;Imaginary&amp;nbsp;Dataset&lt;br&gt;&lt;br&gt;&lt;/font&gt;" style="shape=cylinder3;whiteSpace=wrap;html=1;boundedLbl=1;backgroundOutline=1;size=9.052631578947398;strokeWidth=3;fontSize=14;fillColor=#d5e8d4;strokeColor=#82b366;" parent="1" vertex="1">
          <mxGeometry x="1208" y="940.5" width="151.5" height="79" as="geometry" />
        </mxCell>
        <mxCell id="Zlv9bYPHOYVSG-MM0NKb-236" value="&lt;font style=&quot;font-size: 17px;&quot;&gt;for policies&lt;br&gt;&lt;br&gt;&lt;/font&gt;" style="rounded=0;whiteSpace=wrap;html=1;flipH=1;flipV=1;strokeWidth=1;glass=0;fontSize=14;strokeColor=none;fillColor=#e1d5e7;" parent="1" vertex="1">
          <mxGeometry x="900" y="1254" width="113" height="63" as="geometry" />
        </mxCell>
        <mxCell id="Zlv9bYPHOYVSG-MM0NKb-237" style="edgeStyle=orthogonalEdgeStyle;rounded=0;orthogonalLoop=1;jettySize=auto;html=1;exitX=1.007;exitY=0.598;exitDx=0;exitDy=0;exitPerimeter=0;fontSize=13;strokeWidth=2;fillColor=#f5f5f5;strokeColor=#666666;endArrow=none;endFill=0;dashed=1;" parent="1" target="Zlv9bYPHOYVSG-MM0NKb-258" edge="1">
          <mxGeometry relative="1" as="geometry">
            <mxPoint x="1135.9999999999998" y="1259.8519999999999" as="sourcePoint" />
            <mxPoint x="1168.9999999999998" y="1256.26" as="targetPoint" />
            <Array as="points">
              <mxPoint x="1136" y="1256" />
            </Array>
          </mxGeometry>
        </mxCell>
        <mxCell id="Zlv9bYPHOYVSG-MM0NKb-238" style="edgeStyle=orthogonalEdgeStyle;rounded=0;orthogonalLoop=1;jettySize=auto;html=1;entryX=0;entryY=0.5;entryDx=0;entryDy=0;exitX=1.036;exitY=0.171;exitDx=0;exitDy=0;exitPerimeter=0;fontSize=13;strokeWidth=2;fillColor=#f5f5f5;strokeColor=#666666;endArrow=none;endFill=0;dashed=1;" parent="1" target="Zlv9bYPHOYVSG-MM0NKb-259" edge="1">
          <mxGeometry relative="1" as="geometry">
            <mxPoint x="1138.8799999999999" y="1115.4739999999997" as="sourcePoint" />
            <mxPoint x="1188.9999999999998" y="1112" as="targetPoint" />
          </mxGeometry>
        </mxCell>
        <mxCell id="Zlv9bYPHOYVSG-MM0NKb-240" style="edgeStyle=orthogonalEdgeStyle;rounded=0;orthogonalLoop=1;jettySize=auto;html=1;entryX=0.5;entryY=1;entryDx=0;entryDy=0;curved=1;fontSize=13;strokeWidth=2;fillColor=#dae8fc;strokeColor=#6c8ebf;" parent="1" target="Zlv9bYPHOYVSG-MM0NKb-254" edge="1">
          <mxGeometry relative="1" as="geometry">
            <mxPoint x="1481.75" y="1347.2222222222222" as="sourcePoint" />
          </mxGeometry>
        </mxCell>
        <mxCell id="Zlv9bYPHOYVSG-MM0NKb-242" value="query" style="text;html=1;align=center;verticalAlign=middle;resizable=0;points=[];autosize=1;strokeColor=none;fillColor=none;fontSize=17;" parent="1" vertex="1">
          <mxGeometry x="1220.5" y="1317" width="70" height="30" as="geometry" />
        </mxCell>
        <mxCell id="Zlv9bYPHOYVSG-MM0NKb-264" style="edgeStyle=orthogonalEdgeStyle;rounded=0;orthogonalLoop=1;jettySize=auto;html=1;entryX=0.5;entryY=1;entryDx=0;entryDy=0;strokeWidth=2;fillColor=#dae8fc;strokeColor=#6c8ebf;" parent="1" source="Zlv9bYPHOYVSG-MM0NKb-245" target="Zlv9bYPHOYVSG-MM0NKb-252" edge="1">
          <mxGeometry relative="1" as="geometry" />
        </mxCell>
        <mxCell id="Zlv9bYPHOYVSG-MM0NKb-245" value="$$\hat s_t, \hat a_t$$" style="text;strokeColor=none;align=center;fillColor=#f8cecc;html=1;verticalAlign=middle;whiteSpace=wrap;rounded=1;fontSize=17;" parent="1" vertex="1">
          <mxGeometry x="1352.25" y="1169.5" width="72.25" height="30" as="geometry" />
        </mxCell>
        <mxCell id="Zlv9bYPHOYVSG-MM0NKb-270" style="edgeStyle=orthogonalEdgeStyle;rounded=0;orthogonalLoop=1;jettySize=auto;html=1;dashed=1;strokeWidth=2;fillColor=#dae8fc;strokeColor=#6c8ebf;" parent="1" source="Zlv9bYPHOYVSG-MM0NKb-246" edge="1">
          <mxGeometry relative="1" as="geometry">
            <mxPoint x="1541.7777777777774" y="1332.1599999999999" as="targetPoint" />
          </mxGeometry>
        </mxCell>
        <mxCell id="Zlv9bYPHOYVSG-MM0NKb-246" value="&lt;div style=&quot;font-size: 17px;&quot;&gt;$$\hat r_{t}, \hat s_{t+1}$$&lt;/div&gt;" style="text;strokeColor=none;align=center;fillColor=#f8cecc;html=1;verticalAlign=middle;whiteSpace=wrap;rounded=1;fontSize=17;fontFamily=Helvetica;fontColor=default;" parent="1" vertex="1">
          <mxGeometry x="1501" y="1100.84" width="80" height="30" as="geometry" />
        </mxCell>
        <mxCell id="Zlv9bYPHOYVSG-MM0NKb-247" value="update" style="text;html=1;align=center;verticalAlign=middle;resizable=0;points=[];autosize=1;strokeColor=none;fillColor=none;fontSize=17;" parent="1" vertex="1">
          <mxGeometry x="1539.5" y="1209" width="80" height="30" as="geometry" />
        </mxCell>
        <mxCell id="Zlv9bYPHOYVSG-MM0NKb-250" value="" style="shape=curlyBracket;whiteSpace=wrap;html=1;rounded=1;flipH=1;labelPosition=right;verticalLabelPosition=middle;align=left;verticalAlign=middle;strokeWidth=2;fillColor=#f5f5f5;strokeColor=#666666;fontColor=#333333;" parent="1" vertex="1">
          <mxGeometry x="1013" y="1097" width="43" height="101.5" as="geometry" />
        </mxCell>
        <mxCell id="Zlv9bYPHOYVSG-MM0NKb-251" style="edgeStyle=orthogonalEdgeStyle;rounded=0;orthogonalLoop=1;jettySize=auto;html=1;entryX=0;entryY=0.5;entryDx=0;entryDy=0;exitX=1;exitY=0.5;exitDx=0;exitDy=0;fontSize=13;strokeWidth=2;fillColor=#f5f5f5;strokeColor=#666666;endArrow=blockThin;endFill=1;dashed=1;" parent="1" source="Zlv9bYPHOYVSG-MM0NKb-259" target="Zlv9bYPHOYVSG-MM0NKb-252" edge="1">
          <mxGeometry relative="1" as="geometry">
            <mxPoint x="1263" y="1112.0232558139535" as="sourcePoint" />
            <Array as="points">
              <mxPoint x="1299" y="1117" />
              <mxPoint x="1299" y="1116" />
            </Array>
          </mxGeometry>
        </mxCell>
        <mxCell id="Zlv9bYPHOYVSG-MM0NKb-266" style="edgeStyle=orthogonalEdgeStyle;rounded=0;orthogonalLoop=1;jettySize=auto;html=1;entryX=0;entryY=0.5;entryDx=0;entryDy=0;strokeWidth=2;fillColor=#dae8fc;strokeColor=#6c8ebf;" parent="1" source="Zlv9bYPHOYVSG-MM0NKb-252" target="Zlv9bYPHOYVSG-MM0NKb-246" edge="1">
          <mxGeometry relative="1" as="geometry" />
        </mxCell>
        <mxCell id="Zlv9bYPHOYVSG-MM0NKb-252" value="LLMs&amp;nbsp;&lt;span style=&quot;background-color: initial; font-size: 19px;&quot;&gt;as `T` and `R`&lt;/span&gt;&lt;div style=&quot;font-size: 19px;&quot;&gt;&lt;span style=&quot;background-color: initial; font-size: 19px;&quot;&gt;&lt;br style=&quot;font-size: 19px;&quot;&gt;&lt;/span&gt;&lt;/div&gt;" style="rounded=1;whiteSpace=wrap;html=1;arcSize=14;strokeWidth=4;fontSize=19;strokeColor=#6c8ebf;align=center;verticalAlign=middle;fontFamily=Times New Roman;fillColor=#dae8fc;" parent="1" vertex="1">
          <mxGeometry x="1304" y="1080" width="172" height="73" as="geometry" />
        </mxCell>
        <mxCell id="Zlv9bYPHOYVSG-MM0NKb-253" style="edgeStyle=orthogonalEdgeStyle;rounded=0;orthogonalLoop=1;jettySize=auto;html=1;fontSize=13;strokeWidth=2;fillColor=#dae8fc;strokeColor=#6c8ebf;" parent="1" source="Zlv9bYPHOYVSG-MM0NKb-254" target="Zlv9bYPHOYVSG-MM0NKb-245" edge="1">
          <mxGeometry relative="1" as="geometry" />
        </mxCell>
        <mxCell id="Zlv9bYPHOYVSG-MM0NKb-254" value="LLMs&amp;nbsp;&lt;span style=&quot;background-color: initial; font-size: 19px;&quot;&gt;as `\pi`&lt;br style=&quot;font-size: 19px;&quot;&gt;&lt;br style=&quot;font-size: 19px;&quot;&gt;&lt;/span&gt;" style="rounded=1;whiteSpace=wrap;html=1;arcSize=14;strokeWidth=4;fontSize=19;strokeColor=#6c8ebf;align=center;verticalAlign=middle;fontFamily=Times New Roman;fillColor=#dae8fc;" parent="1" vertex="1">
          <mxGeometry x="1309" y="1230" width="160" height="60" as="geometry" />
        </mxCell>
        <mxCell id="Zlv9bYPHOYVSG-MM0NKb-255" style="edgeStyle=orthogonalEdgeStyle;rounded=0;orthogonalLoop=1;jettySize=auto;html=1;exitX=0;exitY=0.5;exitDx=0;exitDy=0;fontSize=13;strokeWidth=2;fillColor=#f5f5f5;strokeColor=#666666;endArrow=blockThin;endFill=1;dashed=1;" parent="1" source="Zlv9bYPHOYVSG-MM0NKb-245" edge="1">
          <mxGeometry relative="1" as="geometry">
            <mxPoint x="1351.51" y="1184.62" as="sourcePoint" />
            <mxPoint x="1159" y="1184" as="targetPoint" />
          </mxGeometry>
        </mxCell>
        <mxCell id="Zlv9bYPHOYVSG-MM0NKb-256" value="query" style="text;html=1;align=center;verticalAlign=middle;resizable=0;points=[];autosize=1;strokeColor=none;fillColor=none;fontSize=17;" parent="1" vertex="1">
          <mxGeometry x="1220.5" y="1179" width="70" height="30" as="geometry" />
        </mxCell>
        <mxCell id="Zlv9bYPHOYVSG-MM0NKb-257" style="edgeStyle=orthogonalEdgeStyle;rounded=0;orthogonalLoop=1;jettySize=auto;html=1;entryX=-0.01;entryY=0.489;entryDx=0;entryDy=0;entryPerimeter=0;exitX=1;exitY=0.5;exitDx=0;exitDy=0;fontSize=13;strokeWidth=2;fillColor=#f5f5f5;strokeColor=#666666;endArrow=blockThin;endFill=1;dashed=1;" parent="1" source="Zlv9bYPHOYVSG-MM0NKb-258" target="Zlv9bYPHOYVSG-MM0NKb-254" edge="1">
          <mxGeometry relative="1" as="geometry">
            <mxPoint x="1291.9999999999995" y="1256.2790697674418" as="sourcePoint" />
          </mxGeometry>
        </mxCell>
        <mxCell id="Zlv9bYPHOYVSG-MM0NKb-258" value="instantiated knowledege" style="text;strokeColor=none;align=center;fillColor=#e1d5e7;html=1;verticalAlign=middle;whiteSpace=wrap;rounded=0;fontSize=17;fontFamily=Helvetica;fontColor=default;" parent="1" vertex="1">
          <mxGeometry x="1176" y="1232" width="103" height="55" as="geometry" />
        </mxCell>
        <mxCell id="Zlv9bYPHOYVSG-MM0NKb-259" value="instantiated knowledege" style="text;strokeColor=none;align=center;fillColor=#e1d5e7;html=1;verticalAlign=middle;whiteSpace=wrap;rounded=0;fontSize=17;" parent="1" vertex="1">
          <mxGeometry x="1180" y="1087.02" width="100" height="58.98" as="geometry" />
        </mxCell>
        <mxCell id="Zlv9bYPHOYVSG-MM0NKb-261" style="edgeStyle=orthogonalEdgeStyle;rounded=0;orthogonalLoop=1;jettySize=auto;html=1;exitX=-0.027;exitY=0.517;exitDx=0;exitDy=0;exitPerimeter=0;entryX=0.973;entryY=0.95;entryDx=0;entryDy=0;entryPerimeter=0;fontSize=13;strokeWidth=2;fillColor=#f5f5f5;strokeColor=#666666;endArrow=blockThin;endFill=1;dashed=1;" parent="1" target="Zlv9bYPHOYVSG-MM0NKb-239" edge="1">
          <mxGeometry relative="1" as="geometry">
            <mxPoint x="1478.5099999999998" y="1347.6699999999996" as="sourcePoint" />
            <mxPoint x="1133" y="1327" as="targetPoint" />
          </mxGeometry>
        </mxCell>
        <mxCell id="Zlv9bYPHOYVSG-MM0NKb-273" value="" style="shape=partialRectangle;whiteSpace=wrap;html=1;bottom=1;right=1;left=1;top=0;fillColor=none;routingCenterX=-0.5;rotation=-180;rounded=0;dashed=1;dashPattern=1 1;strokeColor=#000000;strokeWidth=2;align=center;verticalAlign=middle;fontFamily=Helvetica;fontSize=11;fontColor=default;labelBackgroundColor=default;" parent="1" vertex="1">
          <mxGeometry x="1344.92" y="1054.26" width="216.36" height="18.26" as="geometry" />
        </mxCell>
        <mxCell id="Zlv9bYPHOYVSG-MM0NKb-274" style="edgeStyle=orthogonalEdgeStyle;rounded=0;orthogonalLoop=1;jettySize=auto;html=1;dashed=1;dashPattern=1 1;strokeColor=#000000;strokeWidth=3;align=center;verticalAlign=middle;fontFamily=Helvetica;fontSize=11;fontColor=default;labelBackgroundColor=default;startArrow=oval;startFill=1;endArrow=blockThin;endFill=1;fillColor=#e1d5e7;exitX=0.459;exitY=0.996;exitDx=0;exitDy=0;entryX=0.5;entryY=1;entryDx=0;entryDy=0;exitPerimeter=0;" parent="1" source="Zlv9bYPHOYVSG-MM0NKb-273" target="jUXCTBX1vc5QMKHOYlBD-27" edge="1">
          <mxGeometry relative="1" as="geometry">
            <mxPoint x="1469.5" y="1015" as="targetPoint" />
          </mxGeometry>
        </mxCell>
        <mxCell id="Zlv9bYPHOYVSG-MM0NKb-278" value="" style="endArrow=blockThin;html=1;rounded=0;entryX=0.228;entryY=0.963;entryDx=0;entryDy=0;entryPerimeter=0;dashed=1;dashPattern=1 1;strokeColor=#000000;strokeWidth=3;align=center;verticalAlign=middle;fontFamily=Helvetica;fontSize=11;fontColor=default;labelBackgroundColor=default;startArrow=oval;startFill=1;endFill=1;fillColor=#e1d5e7;exitX=0.997;exitY=0.763;exitDx=0;exitDy=0;exitPerimeter=0;flowAnimation=0;jumpStyle=none;" parent="1" source="Zlv9bYPHOYVSG-MM0NKb-90" target="jUXCTBX1vc5QMKHOYlBD-21" edge="1">
          <mxGeometry width="50" height="50" relative="1" as="geometry">
            <mxPoint x="1040.0679999999998" y="1330" as="sourcePoint" />
            <mxPoint x="1340.0679999999998" y="1367" as="targetPoint" />
          </mxGeometry>
        </mxCell>
        <mxCell id="Zlv9bYPHOYVSG-MM0NKb-287" style="edgeStyle=orthogonalEdgeStyle;rounded=0;orthogonalLoop=1;jettySize=auto;html=1;entryX=-0.001;entryY=0.726;entryDx=0;entryDy=0;entryPerimeter=0;endArrow=none;endFill=0;strokeWidth=2;fillColor=#f5f5f5;strokeColor=#666666;" parent="1" source="Zlv9bYPHOYVSG-MM0NKb-236" target="Zlv9bYPHOYVSG-MM0NKb-239" edge="1">
          <mxGeometry relative="1" as="geometry" />
        </mxCell>
        <mxCell id="vRQPBr0bJeLojKjRBXZO-3" value="" style="endArrow=none;dashed=1;html=1;rounded=0;entryX=1;entryY=0;entryDx=0;entryDy=0;exitX=0.25;exitY=0;exitDx=0;exitDy=0;" parent="1" source="Zlv9bYPHOYVSG-MM0NKb-77" target="Zlv9bYPHOYVSG-MM0NKb-106" edge="1">
          <mxGeometry width="50" height="50" relative="1" as="geometry">
            <mxPoint x="618" y="830" as="sourcePoint" />
            <mxPoint x="668" y="780" as="targetPoint" />
          </mxGeometry>
        </mxCell>
        <mxCell id="vRQPBr0bJeLojKjRBXZO-4" value="" style="endArrow=none;dashed=1;html=1;rounded=0;entryX=1;entryY=1;entryDx=0;entryDy=0;" parent="1" source="Zlv9bYPHOYVSG-MM0NKb-77" target="Zlv9bYPHOYVSG-MM0NKb-106" edge="1">
          <mxGeometry width="50" height="50" relative="1" as="geometry">
            <mxPoint x="728" y="880" as="sourcePoint" />
            <mxPoint x="697" y="837" as="targetPoint" />
          </mxGeometry>
        </mxCell>
        <mxCell id="vRQPBr0bJeLojKjRBXZO-5" value="" style="endArrow=none;dashed=1;html=1;rounded=0;exitX=0;exitY=1;exitDx=0;exitDy=0;entryX=0.005;entryY=0.989;entryDx=0;entryDy=0;entryPerimeter=0;" parent="1" source="Zlv9bYPHOYVSG-MM0NKb-77" target="Zlv9bYPHOYVSG-MM0NKb-106" edge="1">
          <mxGeometry width="50" height="50" relative="1" as="geometry">
            <mxPoint x="738" y="890" as="sourcePoint" />
            <mxPoint x="699" y="1000" as="targetPoint" />
          </mxGeometry>
        </mxCell>
        <mxCell id="vRQPBr0bJeLojKjRBXZO-6" value="" style="endArrow=none;dashed=1;html=1;rounded=0;exitX=0;exitY=0;exitDx=0;exitDy=0;entryX=0;entryY=0;entryDx=0;entryDy=0;" parent="1" source="Zlv9bYPHOYVSG-MM0NKb-77" target="Zlv9bYPHOYVSG-MM0NKb-106" edge="1">
          <mxGeometry width="50" height="50" relative="1" as="geometry">
            <mxPoint x="738" y="880" as="sourcePoint" />
            <mxPoint x="530" y="998" as="targetPoint" />
          </mxGeometry>
        </mxCell>
        <mxCell id="Zlv9bYPHOYVSG-MM0NKb-106" value="&lt;p style=&quot;margin-top: 0px; font-size: 16px;&quot;&gt;Knowledge Piece&amp;nbsp;&lt;br&gt;&lt;br&gt;&lt;/p&gt;&lt;p style=&quot;margin-top: 0px; font-size: 15px;&quot;&gt;&lt;br&gt;&lt;/p&gt;" style="text;html=1;whiteSpace=wrap;overflow=hidden;rounded=0;fillColor=#d0cee2;strokeColor=none;strokeWidth=2;dashed=1;dashPattern=1 1;fontSize=16;spacingLeft=8;arcSize=9;" parent="1" vertex="1">
          <mxGeometry x="498" y="788" width="177" height="252" as="geometry" />
        </mxCell>
        <mxCell id="vRQPBr0bJeLojKjRBXZO-7" value="（1）" style="text;html=1;align=center;verticalAlign=middle;resizable=0;points=[];autosize=1;strokeColor=none;fillColor=none;fontFamily=Helvetica;fontSize=17;fontColor=#CC0066;fontStyle=1;" parent="1" vertex="1">
          <mxGeometry x="1444.5" y="1316" width="50" height="30" as="geometry" />
        </mxCell>
        <mxCell id="vRQPBr0bJeLojKjRBXZO-8" value="（2）" style="text;html=1;align=center;verticalAlign=middle;resizable=0;points=[];autosize=1;strokeColor=none;fillColor=none;fontSize=17;fontStyle=1;fontColor=#CC0066;" parent="1" vertex="1">
          <mxGeometry x="1406" y="1168.5" width="70" height="30" as="geometry" />
        </mxCell>
        <mxCell id="vRQPBr0bJeLojKjRBXZO-9" value="（3）" style="text;html=1;align=center;verticalAlign=middle;resizable=0;points=[];autosize=1;strokeColor=none;fillColor=none;fontFamily=Helvetica;fontSize=17;fontColor=#CC0066;fontStyle=1;" parent="1" vertex="1">
          <mxGeometry x="1554.5" y="1146" width="50" height="30" as="geometry" />
        </mxCell>
        <mxCell id="jUXCTBX1vc5QMKHOYlBD-2" value="$$\mathcal{B}$$" style="text;html=1;align=center;verticalAlign=middle;resizable=0;points=[];autosize=1;strokeColor=none;fillColor=none;fontSize=19;" parent="1" vertex="1">
          <mxGeometry x="587" y="1047" width="160" height="40" as="geometry" />
        </mxCell>
        <mxCell id="jUXCTBX1vc5QMKHOYlBD-3" value="$$|\mathcal{M}|$$" style="text;html=1;align=center;verticalAlign=middle;resizable=0;points=[];autosize=1;strokeColor=none;fillColor=none;fontSize=19;" parent="1" vertex="1">
          <mxGeometry x="656" y="1220" width="180" height="40" as="geometry" />
        </mxCell>
        <mxCell id="jUXCTBX1vc5QMKHOYlBD-4" value="&lt;font style=&quot;font-size: 17px;&quot;&gt;extracted knowledge&amp;nbsp;&lt;/font&gt;" style="text;html=1;align=center;verticalAlign=middle;whiteSpace=wrap;rounded=0;fontSize=17;" parent="1" vertex="1">
          <mxGeometry x="703" y="839" width="199" height="30" as="geometry" />
        </mxCell>
        <mxCell id="jUXCTBX1vc5QMKHOYlBD-5" value="$$\mathcal{K}^0=\{K_1^0, ..., K^0_{N_K^0}\}$$" style="text;html=1;align=center;verticalAlign=middle;resizable=0;points=[];autosize=1;strokeColor=none;fillColor=none;fontSize=17;" parent="1" vertex="1">
          <mxGeometry x="612.25" y="871.3900000000001" width="380" height="30" as="geometry" />
        </mxCell>
        <mxCell id="jUXCTBX1vc5QMKHOYlBD-6" value="&lt;span style=&quot;color: rgb(51, 51, 51); font-family: Helvetica; font-size: 16px; font-style: normal; font-variant-ligatures: normal; font-variant-caps: normal; font-weight: 400; letter-spacing: normal; orphans: 2; text-align: left; text-indent: 0px; text-transform: none; widows: 2; word-spacing: 0px; -webkit-text-stroke-width: 0px; white-space: normal; background-color: rgb(251, 251, 251); text-decoration-thickness: initial; text-decoration-style: initial; text-decoration-color: initial; float: none; display: inline !important;&quot;&gt;$$K^0_i$$&lt;/span&gt;" style="text;whiteSpace=wrap;html=1;fontSize=16;" parent="1" vertex="1">
          <mxGeometry x="636" y="770.5" width="30" height="40" as="geometry" />
        </mxCell>
        <mxCell id="jUXCTBX1vc5QMKHOYlBD-8" value="# Analyze the state of players in the football match&#39;,&#xa;# Determine macro tactics and strategies for all players in the team&#39;,&#xa;# Provide instructions on how players should be used in the frontcourt during a match&#39;,&#xa;# Decide when forwards should take shots&#39;,&#xa;# Output the actions for each player based on the analysis&#39;,&#xa;return actions&#39;" style="text;overflow=hidden;rounded=0;whiteSpace=wrap;fontFamily=Verdana;fontSize=10;" parent="1" vertex="1">
          <mxGeometry x="522" y="827" width="150" height="203" as="geometry" />
        </mxCell>
        <mxCell id="jUXCTBX1vc5QMKHOYlBD-9" value="&lt;span style=&quot;color: rgb(0, 0, 0); font-family: Verdana; font-size: 10px; font-style: normal; font-variant-ligatures: normal; font-variant-caps: normal; font-weight: 400; letter-spacing: normal; orphans: 2; text-align: left; text-indent: 0px; text-transform: none; widows: 2; word-spacing: 0px; -webkit-text-stroke-width: 0px; white-space: normal; text-decoration-thickness: initial; text-decoration-style: initial; text-decoration-color: initial; float: none; display: inline !important;&quot;&gt;&#39;def football_policy(state):&#39;,&lt;/span&gt;&lt;br style=&quot;forced-color-adjust: none; padding: 0px; margin: 0px; color: rgb(0, 0, 0); font-family: Verdana; font-size: 10px; font-style: normal; font-variant-ligatures: normal; font-variant-caps: normal; font-weight: 400; letter-spacing: normal; orphans: 2; text-align: left; text-indent: 0px; text-transform: none; widows: 2; word-spacing: 0px; -webkit-text-stroke-width: 0px; white-space: normal; text-decoration-thickness: initial; text-decoration-style: initial; text-decoration-color: initial;&quot;&gt;" style="text;whiteSpace=wrap;html=1;textShadow=0;labelBorderColor=none;labelBackgroundColor=none;" parent="1" vertex="1">
          <mxGeometry x="502" y="810.5" width="170" height="40" as="geometry" />
        </mxCell>
        <mxCell id="jUXCTBX1vc5QMKHOYlBD-10" value="$$\mathbf{M}_{\rm ext}$$" style="text;html=1;align=center;verticalAlign=middle;resizable=0;points=[];autosize=1;strokeColor=none;fillColor=none;fontSize=17;" parent="1" vertex="1">
          <mxGeometry x="695" y="979" width="220" height="30" as="geometry" />
        </mxCell>
        <mxCell id="jUXCTBX1vc5QMKHOYlBD-11" value="$$\mathbf{M}_{\rm agg}$$" style="text;html=1;align=center;verticalAlign=middle;resizable=0;points=[];autosize=1;strokeColor=none;fillColor=none;fontSize=17;" parent="1" vertex="1">
          <mxGeometry x="929" y="862.5" width="220" height="30" as="geometry" />
        </mxCell>
        <mxCell id="jUXCTBX1vc5QMKHOYlBD-12" value="&lt;font style=&quot;font-size: 17px;&quot;&gt;aggregated knowledge&amp;nbsp;&lt;/font&gt;" style="text;html=1;align=center;verticalAlign=middle;whiteSpace=wrap;rounded=0;fontSize=17;" parent="1" vertex="1">
          <mxGeometry x="935.5" y="924" width="199" height="30" as="geometry" />
        </mxCell>
        <mxCell id="jUXCTBX1vc5QMKHOYlBD-13" value="$$\mathcal{K}=\{K_1, ..., K_{N_K}\}$$" style="text;html=1;align=center;verticalAlign=middle;resizable=0;points=[];autosize=1;strokeColor=none;fillColor=none;fontSize=17;" parent="1" vertex="1">
          <mxGeometry x="884" y="956.3900000000001" width="310" height="30" as="geometry" />
        </mxCell>
        <mxCell id="jUXCTBX1vc5QMKHOYlBD-16" value="&lt;span style=&quot;color: rgb(0, 0, 0); font-family: Helvetica; font-size: 17px; font-style: normal; font-variant-ligatures: normal; font-variant-caps: normal; font-weight: 400; letter-spacing: normal; orphans: 2; text-align: center; text-indent: 0px; text-transform: none; widows: 2; word-spacing: 0px; -webkit-text-stroke-width: 0px; white-space: nowrap; background-color: rgb(251, 251, 251); text-decoration-thickness: initial; text-decoration-style: initial; text-decoration-color: initial; display: inline !important; float: none;&quot;&gt;$$\mathcal{K}_\pi$$&lt;/span&gt;" style="text;whiteSpace=wrap;html=1;" parent="1" vertex="1">
          <mxGeometry x="942.5" y="1265.5" width="33" height="40" as="geometry" />
        </mxCell>
        <mxCell id="Zlv9bYPHOYVSG-MM0NKb-239" value="Knowledge&lt;br style=&quot;font-size: 19px;&quot;&gt;Retrieval&lt;br style=&quot;font-size: 19px;&quot;&gt;Module&lt;br style=&quot;font-size: 19px;&quot;&gt;&lt;div style=&quot;font-size: 19px;&quot;&gt;&lt;br&gt;&lt;br style=&quot;font-size: 19px;&quot;&gt;&lt;/div&gt;&lt;div style=&quot;font-size: 19px;&quot;&gt;&lt;br&gt;&lt;/div&gt;&lt;div style=&quot;font-size: 19px;&quot;&gt;&lt;br&gt;&lt;/div&gt;&lt;div style=&quot;font-size: 19px;&quot;&gt;&lt;br&gt;&lt;br&gt;&lt;/div&gt;" style="rounded=1;whiteSpace=wrap;html=1;arcSize=14;strokeWidth=4;fontSize=19;fillColor=#dae8fc;strokeColor=#6c8ebf;fontFamily=Times New Roman;" parent="1" vertex="1">
          <mxGeometry x="1048.5" y="1087" width="110" height="274" as="geometry" />
        </mxCell>
        <mxCell id="jUXCTBX1vc5QMKHOYlBD-21" value="$$\begin{aligned}&lt;br style=&quot;font-size: 17px;&quot;&gt;&amp;amp;\mathbf{M}_{\rm scope}\\&lt;br style=&quot;font-size: 17px;&quot;&gt;&amp;amp;~~~~\circ\\&lt;br style=&quot;font-size: 17px;&quot;&gt;&amp;amp;\mathbf{R}_{\rm scope}\\&lt;br style=&quot;font-size: 17px;&quot;&gt;&amp;amp;~~~~\circ\\&lt;br style=&quot;font-size: 17px;&quot;&gt;&amp;amp;\mathbf{M}_{\rm Inst}\\&lt;br style=&quot;font-size: 17px;&quot;&gt;\end{aligned}$$" style="text;html=1;align=center;verticalAlign=middle;resizable=0;points=[];autosize=1;strokeColor=none;fillColor=none;fontSize=17;fontFamily=Times New Roman;" parent="1" vertex="1">
          <mxGeometry x="997" y="1186" width="220" height="160" as="geometry" />
        </mxCell>
        <mxCell id="jUXCTBX1vc5QMKHOYlBD-23" value="&lt;span style=&quot;color: rgb(0, 0, 0); font-family: Helvetica; font-size: 17px; font-style: normal; font-variant-ligatures: normal; font-variant-caps: normal; font-weight: 400; letter-spacing: normal; orphans: 2; text-align: center; text-indent: 0px; text-transform: none; widows: 2; word-spacing: 0px; -webkit-text-stroke-width: 0px; white-space: nowrap; background-color: rgb(251, 251, 251); text-decoration-thickness: initial; text-decoration-style: initial; text-decoration-color: initial; display: inline !important; float: none;&quot;&gt;$$\mathbf{M}_T, \mathbf{M}_R$$&lt;/span&gt;" style="text;whiteSpace=wrap;html=1;" parent="1" vertex="1">
          <mxGeometry x="1345.5" y="1096" width="103.5" height="40" as="geometry" />
        </mxCell>
        <mxCell id="jUXCTBX1vc5QMKHOYlBD-24" value="&lt;span style=&quot;color: rgb(0, 0, 0); font-family: Helvetica; font-size: 17px; font-style: normal; font-variant-ligatures: normal; font-variant-caps: normal; font-weight: 400; letter-spacing: normal; orphans: 2; text-align: center; text-indent: 0px; text-transform: none; widows: 2; word-spacing: 0px; -webkit-text-stroke-width: 0px; white-space: nowrap; background-color: rgb(251, 251, 251); text-decoration-thickness: initial; text-decoration-style: initial; text-decoration-color: initial; display: inline !important; float: none;&quot;&gt;$$\mathbf{M}_\pi$$&lt;/span&gt;" style="text;whiteSpace=wrap;html=1;" parent="1" vertex="1">
          <mxGeometry x="1371.5" y="1240" width="103.5" height="40" as="geometry" />
        </mxCell>
        <mxCell id="jUXCTBX1vc5QMKHOYlBD-25" value="&lt;div style=&quot;font-size: 17px;&quot;&gt;$$\hat s_{t}$$&lt;/div&gt;" style="text;strokeColor=none;align=center;fillColor=#f8cecc;html=1;verticalAlign=middle;whiteSpace=wrap;rounded=1;fontSize=17;fontFamily=Helvetica;fontColor=default;" parent="1" vertex="1">
          <mxGeometry x="1502" y="1330.9999999999998" width="80" height="30" as="geometry" />
        </mxCell>
        <mxCell id="jUXCTBX1vc5QMKHOYlBD-27" value="&lt;div style=&quot;&quot;&gt;&lt;span style=&quot;text-wrap: nowrap;&quot;&gt;&lt;font style=&quot;font-size: 17px;&quot;&gt;$$\hat s_t, \hat a_t, \hat r_t, \hat s_{t+1}$$&lt;/font&gt;&lt;/span&gt;&lt;br&gt;&lt;/div&gt;" style="text;strokeColor=none;align=center;fillColor=#f8cecc;html=1;verticalAlign=middle;whiteSpace=wrap;rounded=1;fontSize=17;fontFamily=Helvetica;fontColor=default;spacingTop=16;" parent="1" vertex="1">
          <mxGeometry x="1393.96" y="960" width="137" height="40" as="geometry" />
        </mxCell>
        <mxCell id="jUXCTBX1vc5QMKHOYlBD-28" value="&lt;span style=&quot;color: rgb(0, 0, 0); font-family: Helvetica; font-size: 17px; font-style: normal; font-variant-ligatures: normal; font-variant-caps: normal; font-weight: 400; letter-spacing: normal; orphans: 2; text-align: center; text-indent: 0px; text-transform: none; widows: 2; word-spacing: 0px; -webkit-text-stroke-width: 0px; white-space: nowrap; background-color: rgb(251, 251, 251); text-decoration-thickness: initial; text-decoration-style: initial; text-decoration-color: initial; float: none; display: inline !important;&quot;&gt;$$\mathcal{D}_{\rm img}$$&lt;/span&gt;" style="text;whiteSpace=wrap;html=1;fontSize=17;" parent="1" vertex="1">
          <mxGeometry x="1267.25" y="969" width="33" height="40" as="geometry" />
        </mxCell>
        <mxCell id="jUXCTBX1vc5QMKHOYlBD-31" style="edgeStyle=orthogonalEdgeStyle;rounded=0;orthogonalLoop=1;jettySize=auto;html=1;entryX=1;entryY=0.5;entryDx=0;entryDy=0;entryPerimeter=0;strokeWidth=2;fillColor=#d5e8d4;strokeColor=#82b366;" parent="1" source="jUXCTBX1vc5QMKHOYlBD-27" target="Zlv9bYPHOYVSG-MM0NKb-101" edge="1">
          <mxGeometry relative="1" as="geometry" />
        </mxCell>
        <mxCell id="jUXCTBX1vc5QMKHOYlBD-33" value="&lt;div style=&quot;font-size: 19px;&quot;&gt;Offline Policy Learning from Imaginary Dataset&lt;/div&gt;" style="rounded=1;whiteSpace=wrap;html=1;arcSize=14;strokeWidth=4;fontSize=19;strokeColor=#82b366;align=center;verticalAlign=middle;fontFamily=Times New Roman;fillColor=#d5e8d4;fillStyle=solid;" parent="1" vertex="1">
          <mxGeometry x="1195" y="840" width="260.5" height="60" as="geometry" />
        </mxCell>
        <mxCell id="jUXCTBX1vc5QMKHOYlBD-37" value="" style="shape=image;verticalLabelPosition=bottom;labelBackgroundColor=default;verticalAlign=top;aspect=fixed;imageAspect=0;image=data:image/png,iVBORw0KGgoAAAANSUhEUgAAAJoAAACVCAYAAACgqePCAAAACXBIWXMAAB7CAAAewgFu0HU+AAAgAElEQVR4nOydd5gc1ZX2f7equnt6cs7SKGcJgQRCAhEFmGSMMcHGaxt7sb3ruA7fZ3vXNuscvzU4YRuvwTbGGBsMJkcRJUAJ5Twz0sxoRpNT93R3Vd3vj9OTq3u6RyIZ3ufpR5qudKvq9r3nnvOe9yitteZtvI1XGcbr3YC38dbA2x3tbbwmeLujvY3XBNbr3YA3G6K2ZqRRG7DU69aWNxPe7mgpIGpDQwcc7oDdRxSOO7xtegnkBaEsTz7ZgdevnW9kvN3RJsDzezXP7lVsa4BthyFij98nLwhzymFWGZy3UHPanLdHubFQb7s3vLGzEW5fBy8e0BzuSL3jTCnUrJipuHYlLKh6FRv4JsPbHW0MtNZsb1T86EF4uRZsR6NU6h1Na41lKk6eDl+4CBZVpXf8Pyve7mhj8Moh+N79sKle/tY6/Y42uP9JNfClS+CEqa9GS99ceNu9MQK7m+D7Dwx3smPFpno53+6m43O+NzPe7mgjcMvTx6+TDWJTPfz0cWjtPb7nfbPh7VUn4Lia5/cpNtVDIkPCMmB+FayaBafOgpoiqG+H9fvhhf2wqxFsd/xxWsPLB+HxHXDNireuvfa2jQbsaoKv3i3ui7HQWpOXqXjnifCxs6E0d/w+R3vgV0/BfZuhO+TdmVbOgv++HGqKX4UbeBPg7akTaO+DtgRTW8CCdy+Dz5zv3clAvv/M+bJfIMEccbAVDrUfn/a+GfGW72hRW7O9AY50eW+/+AT40GrIDSY/T25Q9luSYIXZHYIDR+V6b0W85Tta3wDsPqLR2vtz8VKoyE/tXBX5cN1qPM8Tjmq2HNL0Dby69/NGxVt+MeBqiNoKLxs90w9La9IbgVbMhKyAIhQdv60nDK7rAm+9BcFbfkTTbozuBMPM1CIwVXodzVSaqUXe2/p6j2KH3ppOtbd0R3M7X+bojpuhf9fxO6dObO8V6t2o2u/hdr583K73ZsFbsqNp18HpWE9s3/fI676LHNN7OVjbCo6b3jTnuIrucKILx4h1bSW2++vY9b9FR1p5q3iX3lIdTUfbcdqeJrr5g8S2fBjdt4tMM8S0zDrP/SM2PLMnvWvc/GTibTlWN5aKosN12Ad+TGTje3Fqf4mO/vP7Pd4yiwE33Ihd+0vc5rtHfW+aPmpKfGQ24WnA/+F5WDIFpiSwu0bicDs88Ir3tqAR4rTi58gLanDiXw40Ydf9DDdcj1V1DSpnLsrMTO/G3iT4p+9oOtaF0/wP3PancTo3jlrvqfzlBMrfy6L+eVQdgn0t44/f3gg/fQw+sSa5V7++DX7+OHT0e2+vDDZSntGMkb8cZWbhHr1/aJvT8hC6dxdG4Sqsmg+jAqWTu9k3MP6pO5rdfD9O/W/QA0fA6ZPAo1KozJlY0z6Kkb8MlVHJ7JjmhKneHS1qw8PbJMz0/tPgrHnCNxu6hqNZu1vxx+clgB618XSVLMrfyrzcXbg92WSsuA+3eDV23a/RoQOgY+jQfpyBQ7gdz+Nb+AOMnPmv4pN57XFcY52Oq+nsh/4I9EdhZ+PwE59Zqsn0Q3YG5GQIt94wjr8/SbtRdM8OnPZnsBvuQDk9w9usAszcBVg1H8UoOHnUcRvr4Et/GR8mGstHWzIFFlRK2GlvswTWdzUl3h9gWvYhvrn4GyzJfQGtwTfnK1hT3o8ON2I3/QW78a8ou3P4HCqAWXIuVvW1qNyFKMN/7A9mDFxXE45BXwS6+mFbw+g2L6jUBHwS8cgLgv8Yk3CO24jW2gsvHlA8vA0OtMChdj2GzaAIWDCvEuZVwIVLJNB8POH27cVtfwan+T50//6hEQxfIUbeiRil52OVX+p57LJpsGYh3PqsuCgSYeth+aQKQ8GFix2WTrdw2wE0bud6dMW7UMEqfDP/A5U1C7f5PtyuTeCGwR3APfogsf69mNUfwCw+ExUoSedRJEVnP6w/oNjeAHuOwEsHx+dCaA3l+YpFVXBiDayeK+9tsjjmEa07BM/vg0e2wYsH5SakockpMbPK4NwFEkuceww3AKBj3ei+vWLsd60f/l5rlC8fa8oHMKuuQfkLkp6nsx9++CD8bcOIcx8DwxZg5SyXH10VIdB8C77GX6K1xsiowrfw+xj5y4aPGziC0/IQTusjuN3bUYOOYl8BRv4pmKXnYxSuQvnyUm6LF/YckQXOEzsT25Ne93HqTPjkGknCyZvEesW84YYbbkj/MEFfBH7/PPziCdjWCOExq7ZkL6ijX0aG3UfEyK5M3gcSQg+0YNfehHPoNnRoD4zIujTLLsI37waMwtNR/okDlkG//AD2NEPj8EyWNodscP9TZsBXLoGpJT5MA3T3FnSsC9wI+PIxC1cOH2PloHIWYBSuhFgHun+fbHAH0KFa3O4NEGnGyF6AsrLTas8gNtQKTf3pPWLepHofAEe6ZSA53CGmQ3ZGetee9IjW1Kn59n3w5C5G5TkOQ5NqTM9nwmcugOvPTO2laieMjnVjH7oNp+F20A4Qb4TyYRSdLlNS5nSUkb510N6nuflJeHgrHO3R6DRik0ppcoOKS06AT54HRdlyrNaa2N5vYzfcicJGZc/HP/+/MXIXj78/O4TT+ihO019x+/aBPWhnGqismVhTr8MoOg3lK0AZvgnbpLXm9nVw23OyOk4N3u9PKZmJvnnF8L2lgkmNaD1h+O79ioe3KTQKpcZ/pFHe28Z+XK041K5YVA2VBckbr+0+nCN3Yx+8CbftCRQOSsm1jOzZmOUXY039MEb2bJSanD860684Y65iyRRFay/YrqIvMvF95AYVy2rgQ6sV15yqRr0IpRToGG7niyg3DDqKkXcSRvbscddXhg8jZx5m8VmojAoYOAKxdlnNxjpw2p6Gvh0oI4DKqJxwsXDgKHzjXkVDR2rvI9n7A0Vtq8JnKRZWQWDifg5MsqNtqIVfrfVOph2JdKac3gHY1wxLaxRFCWYGp/0ZnMO34jT/A0IHQbvyADKqMSuvxJr6IayqK1H+FLyrKaCyAJZPh8XVipwMyM8UI7knHmIqyYHiHJhWIqTHd54I166CVbMVmV7vXlm4Rx8BuxvcCCpQipF3YsKOoswgRu5CVOYMsPslguBGQLsw0ITbsw2cflSgNKH9ubcZfvTQ+FVlKkj2/nY1CulgXmWK50p36tzVJAbz+gOJpkzB+Ys0y6crCrPA0bClHpq64OndiY+xDM37Vym+PGZh6PbuxGl9ArflAXT40ND3GhMj/0TM8sswyy5CmROwE48BPWH59A7IB8Sm8xnyq67MT+3XHTtwE079zfKHlYf/pFsxsucmPUZrF6JtuN1bsQ/+BLf/wHAnMDNRmTOwZnwWs2jVuGO/+w/44wsaO0nMdnoxXH0qFGSBqWDzITjarXlsR+JjlILVc+A7V8oPbiKk1dFijubGRyRbyMsFYBmygnzvSrhwMWQGZHmvtSRutPXCTY/BUzuhK+yVCKKZVab41hWak6YZuNFOdO9O7Nqfy69Xx4dQIwPlL8Ssfh9W9bWgfCjDTPU2XldoN8rAM6eJAxkwq9+Hf+5XUztWa3AHiO75Bm7bM2K7DT2TAGbxOVjTPoYKTkVZQTbWar56N+xvGW9vmQbMKpUOdtESWUkqpAPFHLnWgaOK/3kEnt/rnXiTnwmfvxCuPHlin2haU2ddm+LP6xWNXePnbstUnDFP8dXLFGfOUwR8CmPEdtNQ5AQVaxYqKvIVG2oVA7HxdkFnSDG3oJFpwT0Y9f+DU3sTRJpRaJQyURnlWGUX41/wPcyi01GGNWlb7PWBAZEGdN8uuW8rB6P8nSmZGUoplOHDLD4bI3chOBGIHEHpGApHogvtT6NjfYR9M3lil8n9r/iGjx3xqS5U/Oi98j6C/vHvyjIVJbmKueWKvS2K5m6xz0aeI2IrHFexbJqakOqe1hvq7IeGTu9tGT743DtS84mtniMrl0R4fkcHLZu/g9v2xKjvjaLTxate85Hj6sB8LaGUQuUuGfrb7VyH25MgEp/wHCZm4Up8s7+ANeXDqMxpwxsjzTiHb6F5+81sqe1JeI7Vc2BR9cTXmlsB16xInHRz4Cg0d098nvQ6WigxqW/NAnHmpYK8THH+TU8QpD7QmU84OmLFlj0f3/zvYM35L8ySNbISexPDKDh1VGeza2+e1HlURgXm1A/gm/99zOoPgj/+QLVDqHUTB5u8O5pSkjqYKs5ZAOcv8t7W1puaTy7ljha1NQePJt6eCo1mJMrzxfj0gu2auFqhMiqx5nwV38IfYZS/EyOYwk/wTQCVUYlZcQUomdbc3p047c9M7lxWFkbeYqyZn8W34Ieo3BPByMB2Dfqi3vPZu06S558qsgJwVoIYf8QWp/tE2V0pezM1yVeZy6eneqZhzCn3liBojlTR72Rjlp2GWf5OlJWgR77G6BuAtj6IxORZZMS9Epm+9F6cUgZGzgJU9hx07w5wI+iBY8slUGYAs3AFRuaPsY/8nei2HTRHvHWzShLkpyZDYZJX4Lgw0YryuAXVM1J03KUDp/Vx0I44LnOXoMzXXk7RdjS7mhQb6qCuFerahJkSs4WFAmIKnDMfqgth6VRNwJeCYR8oRQXKpKPZPbitT6KLz0YFyo6pvdqOr2Z9iWNEPaH0z3us7/e4dbSjie3OhDjU4f19kb+VoBFCh2pxGhpx255CZVRh5C3FrLwclZGil/AY0dABf14vdO76dhiIJd53Qy0UZIrz9oOnT8xMUYESjOKzcbs2QqwLt3sLbueLmOXvnFRbdaQVu/EO3PZncXv3oMJzKfK30h4dv2ja0Zj++TfUJt5WWSD+xGRIuaMFLMWsUon6efnQ7t4gK8mRpMBkGIhpXj441pem0RqyzD58RgytDHCj6FAthGpxul7Cbrkfs/ydmKXvQPuKMKzMScUzk7YtqrlnE/zvM3CkSxOdIAICsiLv7IeDrZrD7fCFC+G0Ocl5XGbZpThH7sHt3AR2L/bRx2ShkALDVrsO2o2AG8Fp+gv24T+KX82NojX4jSi5VjdtkWIGn+sgdh+RH01GCiMvQCSmaenxFsAxFOSkwC1Ma9U5pUgxv9I7NvbSQcXz+1JreEcf3PSoIuaMj6MppViUt53iQBvKX4yRNQtlZsg+OgbhepzanxJ98WJiW67DOfJ33FAd2k0y3KSBrpDmew8obnxU4q+SXJxOjFCx/6jiy39V/O5ZRUuSkV6Zfszyy4aPjbSgnYnnNTfcgNvxHPaeG4i+fAXOwRtRsXbxpylJhq4INnNK0cujnuvgJ+Yofv6EGse2SYRbnxP/qdf9Ti9VlORM/N7TGgrK82B2Oez0sFsHYnDHephRClMKE5+jPyL7/fnFxPvMz9tJUaAD7eRhTrkcAB2qw+18YZTRrHt3Yu/7DkbuElTuUozsmcLZOoZY5z0bFXesn3i/idDZD//vYfn3S5ck3m8kZVv3bsftWCeefQ8ntA434nQ8i9P6JERb0X1jUrQC5eBGIdqO34hQntFEhhEi7Ixffd71kjBnLzspcQgpHIVtDfCPzRIt8MK0Ion3ToS0IgOmIQ7bV+rHX1gjdtqWQ9Adhjnlety00RUSBuudL8r/vVARbOLSynuZllUPOoZSYE75F8zS81E5i1HKj440CxMVxCM+0Iju3ojbtUEevnZTYjWMxbr9wtcamw01WT4aCDU8PzOxcLIKlOL2bIV4DFf37xeS5ghzQDthnIbbsQ/dgtt8r7CHYyM454Yfo+p9GDnz4qvYASzDJdMMsbX7BI5Gysbdw0AMtjdIjsPC6vHGfn9E8/vnFTc/KffgZS6V5giJYGmN9I2kzyTdoHptK/znX4VjnwhBHxTnaK5aoSjKEqO/tlWIjp39iY3qDCPM+6f9gY/O+AUBMyosT8OPWXEl1sxPonz5uLE+sPvQoYPYh29Dd74MOsoQHw0DzEyIEwl9NdejsueC4U/aYV7YB9+9X9gOIzGSaeozwW+K/29qMRxqkx/VQGz4h+fFyF1YBf/zvsRZVHbjX7H33DB0D9bcb2BWvlt4d21PYNfdjI4chfi0KtcwwczAKDoTa/q/gd1PdO93oHfbUBts1+Q39Z/ntgPXEHa8V6EZPrmfU6bDrLjDva4V2vo0Lx1QhJNYJGfPhxuvTW2VnbYVPb0EPnUefPmuxFGCcEx+BT9+KL1zzyuPsGpaFwFzxJCiYzhNf8LIW4xRfimGLxt82RAsxyhcgdv+HE7LA+jQIfTAIYh1ScDa6cMdaCLauQ6j6CzMkvNQwSohQ47xy/VH4N7N4zvZIHymmA2XL4M1i2DuiAhIxNbcslZxz0YJxXgtHGpb4f4tcP1Z4Pd44kbhSlTOPHTvTkAcuBxROIdvk9FrJPzFKCMLM/9EzCkfkFHMjWEf/j30bhu1q2U4nHtCHttiEZ6v9e5oAzF5j/duHv39YLpFIlTky+o6lU4Gk+SjTSkUSswrh5Mv+dOZcuaWw9cujbAgbzdGz7A2xeA5dOQIRtbMUa4NpQyMzGmYpefFSYKV4ETRdpfYKoDSNrp/H27rIzjtz0GsW6Yl/zA7tfaozV83GJ4uGsuAU2cpvnAhXHSCdLjR2xVLpsD8SjEdmjoZx8iNORB1ZIop9uLaKRMdaUZ3y9t2e7ah25+C2Aj/jy8flTMPq/pazMorsKZ+ABWQIdJpvBNn//dHn1IpMLMI1ryX+TOq2dpg0t6X+Pl7Idn7+48LJN8jVUzaL/CukzSH2+WXnCzJIRXMr5SA/AkzcrG7VuK2348Ojw4ZDNKF/Cf+zvMcKlCMWfFujIIV6L596FAd9tGHoHf78DkGmnAabsNtexKVNQOVNRPKr6K7N4vD7d5JH7mZIrCXzC+W4ZPttis+qk6P57GrCfa3jB4NB+F2rBNCYwIYZRdhll0qdmdG5agR2Wl7iljtLzzJ5kbOQvLySynI9PGFi2RxsusYxYwKs+DchXD5stSp+nAMySk+U7FkimZGqWTWjH+4E5t+likpXF+4UF6UaSiMQBFu+LD8qsecQsd6MLJmoDKnef7alFIoXy5G1nRU7kLM4rPAX4oeaEI7IWmRttGxTnToIG7PNlobX+HWLQvY3Oztkb9utebyZdK2iVCRp+mPaE/npu3AzNIRhrMbw+1cR2zXfxJruhvdux3iLhq5b4VRcDK+ed/CrHg3Zs48lL9o1AJHuzb2wZ+he3Yw8nlrDZjZWFVXYRavRimDqgKR0xp8V8lSCuNnGfdNcTZ84lz4yBmQnZHeAumYPJ05QcU74qS5W56WX8vg8CxzvHdjMuKM1IuXwhXLRysqKsOPVXoBuv1Z3PCh0edweont+y4+N4ZRsiapo1YZflRGOUbNdfhqrkMPNGE3/RW35SF0pAXcAdAxiByiu7s9YVs/ckbqybN+S7FmAfzqKe/99zZDV3cHJXoz9qH/HZoq1eACYqgNGiNzClbN9ZiFp3qeS9v9QghtexxJzRt5TY2RWSOsYyWEUMtUnD5HWMFP7YR7NkrcNhFGvr+ibJl1/vXMyefiHheX+spZcPJ0zYNbFev3S+imoUMWBYPTalG2+G1mlcmC4oLFshrzgsqahZF/Eu5AI+CCr1A6hhMSYZT6W/FlzUR5JHYkgsqoxDfj07jF50qYJlSH7t0KkcQFAAqy8HiJyTGjVI7zmj47unsZ2HcTsfBfxjTOJwuVnPkSkoocRYcP47Y/g5G31DO9zu3did1yP0p7ObgMVLDaM8KwbJp85lfB5npo7IC9LeIzGxwkCrNkAZSfBYuqRO7+oiU65aiPF45b7MYyRSL9vIWSA9jcDQNRSTAGefjZGbLEz8lIHqRV/gJU/inQ/CCy5Hcxck/A7dogOhV9W3FaHkQFP552oN3IXYiRuxBt96F7d8OOW2gd8CZRluVKiCWt8ytNWa7y7GhmaCd0rIUR/lMj/2QITsEqvwyVNQv78G3Y9b8FHJyjj2KWX4oak5Lnxnqw625GRUfkzilrBK3bh1l6UdJ2XnyCfJq7oLZNGCmDbc7LlI6WG6/aF/TDscqhHneRl6AfZpTAjJJja5hZcg7Rvd8FJwrRTvAXYZRdjHPkHgDshj+Brwjf1PdP8gJBdLQNQofI9XV7CuIdPDoZIT44eFR7xgWzrV5M5aC1QmXNxCg4GavyPaiMCpRP7Aez+Cxi9b+TThNpwW6+H1/WXJQptpnWmui2z6E7Xxg+seFHZVRJTBhQufMxis9Mqb3l+YkoTsdXF+UNS7ZXvjx80z8+FFNzW+6XX7cvX75zerHrfiGZ32lADxzBOfow0RcvI7bjcxhOFzm+Xs84XtQRelA66OiX4xLFQg1fJv4lN5Fx6n34534VI2f+UCcDMPKWYgRKhuOf4XrJgorDPvD/0F0vDW+3srCmfwLCdfKdGcQ3Lf2R/tXGG7ajAZhlF6OCU4b+djtfxqr5KPjjU53TP+w1TwFu3z5iu/6L2N7voEMHAciy+piTnTgH8KFXhqf/idAdgp89nnh7RUYjGRlBVGZylqg17ePDbW5/Bt0v7XN7d+J0PCeLGABlYpZfhtPy8ND+KmchKicB7/p1xBu6o2FkoHKGs1h09yaMotWYRWfJF24Up+lunKa/oe3Ezjw33IBd+0tie/4bt3MdjLBtVNllzJx3esIsnid3wdokuagjsXY3PJVAd7ky2MCZJWvJjO7Frv910vMYRatR2cPBdrvuZtxwA7GDP4W+vcNtLzoTq/ydYgIMHps9/1XNb50s3tAdTfmyMQqGhVDc3l3o8CHMqqtQWXPkS6cP+9Dvcbu3jDtea0c62Cv/hl3/G1nRDZ47oxKj7FKy5n6OZYtPYMmUcYcDQt/+zVr468siauO5T0S2/2YtCQtWFPo7yPd3ARrdtXFUW8bB8KNG5Ee4PduwD/8et3M9g/4t7SvALD4Xt3szKs6qxV8sIjFvwI52TGpCiRC1Nd2h4ezuiC2MiKiTOtkOJMSELxe3/6BkqLsRtN2HVX0NKliD0701Li8wgI62Y+QtRvkKJBg90IBd/1uZWmMd4qjVChUowyg6E9/cr2NWXYVhBcnKsHBczca68YpIGk17Hzy1W5ydU4qgNyzx0aM9sHaXCCT/77OSEaQ9HJ0+Ez6yfD+nV26DgSahbvdsRWXPxfBgCyszCMrCaV0r06QTRo9IoNZYWNXvxSxaTazuV+iBRplGSy/Cqnw3ykxT6uc1wHFbdWqtOdSuONQO+48qttRregekgshgYkNepuQTVuSLAzAVHroRnIJZfBa65xVw+tF9u3DbnsYsuxC/EyK243Ny/c4XsPf/CGvqdTjtz+M0/x090DzsiM2oxMiYhm/6x8apPQKcOU/xjy1CFRq5Yhx0XGotU+Pa3ZDlh7I8aOmW/IFBKDXeUa0UnDkPzjn1RCKdawj2bUPpCIQO4HY8j5Gz0LNjGHlLMItOG5PbGhdfyZ6Hf9bnZeUdOijX8xdiFq44Zv20VwvHpaO19sLjOxSPbJMqbt0hGRm8nO0Pb4WqApHovOJkcR5OBJU1E+UvRIf7IdqG0/40RsEKkW7KWSThG8RwjoXqhpb5Q8dnVGLWfAyjcBVG0NtLXJQN/36OODDrJ1Bj74/KfaaCmiL4/DuguiQLJ+tcHHsPbrO4aNzmf+BkVGJVvmf8PQfKMIrPwu2WnIIhZFRjTf93GbX764aoQyqjEiPvpNQa9TrgmG203U1wwz3wPw/LaNDSnZzREYqKKPHfNsD/vVNKQU8UlDdyF8HI7KCBZrTdA2YW1qzPo3IWyvfaGd3JlIVZ81F8S36BWX5xwk42iJNnwDXeEZ9J48uXwMx4083MKnwzPzu0TQ80Yh+8aZT7YiR0rBOcEUafsrCmfQyz+AxhHHe9PPS9kbMQlZFiBvfrgEl3NK01W+rhG/eKTGXCaiFJcLhDGLef+1PyuuPKysGa8gEhNIIwaXt2iE/s8B/RveOXekbZO/EvvQVrxqcwsuekrN//wdM1f/wYLK4W22oyMJSQBb57JZw6a7TNpgIlmFM/MnQvRNuw634zbtXsdL6M03SXhN4Gj81ZgJF3Arg2TsvD6P74CtTKx6x+3+Qa+xph0h1te6Pi+w8I0/ZYVHBdLSPht/8hSouJYJasGV5p4mI33k5sz7fiNsz4EcHImoWRf+JQUDlVmIbi5Bnw7ffAGXMnpiiPRXG2yAd86RJ493LvxY9Vc/2otDr70G9xmv8+9Le2+ySnNTxalVn3bJUwnN2N03I/gytQs/R8jKyZ6TX0NcakVp07G+EHDzCh1zwd4mNjp9h1i6ckELEDcG3c9qfl/5FmdKhu6Boqex7KzJJVKMI9I1DqqaiYCopzROCkLA8MpdAMC/B5IS8oRv+HVsO/nKaS6pAoMwBKSadx+kSUDweVvxxl5WAfvh330G/w+gHhRlDBGtzGPw195Zv7tTd8EYxJLQZuXzdxJwOpdzm1SKjCqUyt978irIKrThm/zQ0dHm0Uj4DKmoM187MoM5voJol96nA99oGbsMounPjCCTCrDKYVS/C5JyyFLQbT59p7hWVckAknTJV9KwugJBuMFEZBI28ZVs1HsGt/AdEO3O4t2PW3oALl2Id/j9IjOOH+4iEns9uzFV0/TP5UGdVo/7Flt78WSLujPb9X8+IBIfJ5wW/Jg79uNayYqTGVxtXgasUvnpBaSR193ulbPWHNg1tg1SyoLlRo7aKjnbid67Frf4EeaBg1T2sjE9+cL2GUXSwuAm1jVF4jgXd3QApGHP4jZuV7Ju1bskxFdTx9cHa5xo0PMpIAAqDwmSMTaFMbxZWVhVl5Nc7Rx3AjL4Hdj9N4F6AkRzV+GqPoDHwzPk1k0wdkhWn3ozvXAVoWO5VXYvgnIabxGiOtjtYXgcd2KA53eLsucoOi5fqh1SPJjMM7fukSuHal1FZ6eJt3EYUdTYo9DT2UZgxgRhuw9/9QfGiDZxp1YQdinRhW3LBWfnwzPgFuCLf5PtAx7LpfijOz8opjrkDiMxUMmXzHzm5Qhqwi9b49LOoAACAASURBVEALDNQzVI0sLv5M9lx8s76AClZjVV2Nc/hWQKRGlVKo7HlS7OJVqKxyvJGWqdvSLbx3L1iGiAV/Yk3yGuRTimSfk2q8t/eEoa7xCJ17fk1s73eHOpm01o9ReiFGQdwH4UZw2p7EHWE0K39RnMIdz22LdeIc+Tu6/0DqN/oawixciTX94+O+1/GVtpE9G2UGMUvORWWMds8Y+SehglNfq6YeE9LuaIlS0uZXwkfPZkKJSRDy4/tPS7z9sW2a9oYNQ45YEPE636Ib8c3+kizlA3FrO9aNDo9WLTEKVsXdIcJM1f17cJruQccmoUTzGsDImQ+jVscKI/ckzKIzhr/y5Q/fM4AKCov2DRhu8kJaHa0nnNioP22OMFJTxVnzNPMTiAK1hjKJOoY0z8rDKDkPa85/DtVEUv6SIXqzHmiQ2kru8DysfLlSQ6k8zjJ1ozhNdxI7eGPqDXwNEdv/43hRjhFwQ+gRzlpl5aB8IyTerazjJnP/WiDljhaxddKwy4o03TiWqahJ8JzCThB8BZhl78C/5Of4F984yk9k5J2Akb88Tl92cNueRPeNdtoq049v9lcgEJch1TGcxjuPWfDueMPp2ojb8fyYbzW6bzfu0Uck1KRd3O5XcLs3De8Sa8Pt2pSSKMwbAceNJpSo0yRDIl9Te7SEmFGIypyOtnvR9vgEErPqvWCJuoju34/b/hzaGcPjMXz4ZnwaFYwbhNolduAnuKG6tNvaE4Ynd8I9G+BP62RB86d1cO8mePGARDnShdP+HLEd/2f0aOYvBhTYvThNd+J2vgx2D07LQ6MTigG3f68sJN4EOG7sjfp2CZang0TifUX+VlS4DrvuIYxAOSp/GWb5ZRiFK4Y8/Ub2bMySc3CPSOlqp/0ZjKqrR1GYlTIwSi/ACNfj1N0MaNzWx3CsXNSMT6XEdNh2WHPPJsXBo1JHKRynO/VHRNs1YImzNj9LyjCePlszr3LiFanbuxu77hcQGTZ6jYorMfKWEtv9dcBGhw/jNN6BCk7B7Xh23Dl0/35JHcyahK7ra4yUO5oieTjmxQPi/0oVtqPZ2eT9QgaF+NAOOtKEPtqC2/a0aPKXnCN+seBUVMYwW1H37sBt+gvGtNErOGVmYBadidv+PLpnu6xUW5/EKFiJUXK2tzxUvJjDn9aJG6Y75F3QoT8in45+oE3yWm97Dj5zPlywWJMd8I6OaNfG7dqA27MdNVjcK6Mas3QNRsGpuH27cBv+CIDb8QJ27U3g9A/ekIgs6wGIdeEcuRuVs0g0Sd7ASHnq9FuKeRWJ9eaf30tS0bmxWLtbJSywWp3ZSI6vT3IDzEyZWpwedKQRp+EPRLd8BHv/jyWzO65sjbZx+w96ns/IOwHfnC+LBAJAtBn70G/QI22eOGKO5qWDiq/fIxGQtl7vTuaFgZiszP/zr/DxW0WcMOaMj986rY9iH/jRsPffysaa+kHMotUowycr5iEp95jUjxq8l/xTsWZ+auhvt+V+CI0RgnkDIj3Fx0JYnIDyvKsJfv1U8njgIOrb4I9j7d8RqAoeJtvqlUzz4jWo3KVgjMjqibbhNP5RnLEjygi6bU9J2UEPGHlL8c345NDfumcrsX0/HJdm98wexTfvTa7Zmgo21MI374VdjaNHNK019oGfDInQABj5y6XUUBzKX4xV86+jqVGD+5ZdhFX+TlTW8PThtD19bI19DZBWR6suFPqMF2wX7tsMP388sZwVwOF22cdL9h2gPKOR1SVPk+vrRffuRllZ+Ob9N76FP8acej2Moj67Q8Q/AJwwdu0vpQqcB4yS80blIOjebaNWfA0dIrW17zjZ1/taRHOtYYQNb+//IQw0jGhUYNQPAOLTfcW7MQvHOBt9RRiZNZK0kz1n6Gu3c93xafCriLQVHxWaTfXeKWiRmMiOdvbLFFuYDY6jiTmagRg8vgN++JCUxvbSEVNoVk5p5oKaLeTpA2jtSF3LwpUYhadi5J+EWbQazEz0QDPadeIrtsFRSaND9TjND0iBCDNLpKyUMZxbmbsIN1Q/VCXP6d6OE5iOyqjia3+L8lLtWFrR6BHPNEScxm8NR8NGC6aM3v9IF7R0RVmzUBHa/xt0w/8OrzKNDPyL/wfTg1quDD/a7sHp2gROXN0yowqz9DxRFNIap/Ux0C7a7sUI1mBkH+ci9ccRk6pA/J9/FZGQZAUutNZkBRRT426P2taJ63uW5mhu/kCYmpwj+PZ8ZqhcoMpZgG/OV6XWwAjj2u3ZgX34j7idL0L0KGNpNVorzKKVmGWXoTJrxJPuL8RpfoDYnhskB0FrjPxlPBf7Al99bOk4DbFB9cSAJavqlbNhaqEoA7X1isL1M3uE5hSxvRUfi7LhU8ue5l25X4VIq+QgGAF8c2/AqrjM+/m5MZxDv5PUvBGjtlGwEt/im8DuJbbvO7itkkiq8pfjX/zTN2zOwKT4aBV5Ihcwsu64F2xX0dYnqjXJOuUgrjgZrjjFjz9YiO4/gNu7U1Zl0VbQruQIjFAQUoFSjKLTMbJmiHZtbKwzS8NAA27b4zhtT6HDhyWVLbNGRoLQAXBjdIZMfr99GVtaZ3i2qyBL8a6T4FNr4D0na06cpqgplrDbabM1J0xRGIb40gZi41ea4ShYA3s4OXctQTMsbpf8k7GqrhqVpT6q5aE6UXEcUZ8UJBJiFKzAyJmPdsKStudGUMpE5SzECCYwol9nTKqjleSK3un+FhF0SYR0iI+nzID/ukzKTAOorBnocAOE6wAhMhqZ08dND8qwMLKmgxPG7d48LHQytg1uGLdvN7pnM7pvn0xfbhQd62B75zzurHs3Pfb4l57phw+crrj+TClWMfaelFKU5YntqoEdDXgWYY25Fkvyt1IZbERl1uCf+3WMEXbWWLhdm3Aa75D7UT4IlAy5ONz+OozsWSgrG7frReHpaRsje45Qvd+AmHRkYFGV5v9eLFlMaYpWj26AEo20b40pBm8Ep+Cb+Vkp8wxg92Af+DFO21rP85hVVw9JbQIYhavwzf06KmsuYMWD1go90ITbvha39TF0+DBaQ+NAFU0D3quc4hz4yBmawgncVIXZsl8i/bCmgWo2dixnwAliFJ0h9TYTQDsRGaHjyuNYeZillzD4unTvduyG21E5C4ajHk4It20tbijBKut1xqQ7mlKKpTXwtcvgkhPSjwqAuEs+tBq+eJG3YrWRPRtr1hfBlMRQPdCA03D7UL2jUe2xsjArrxz+wo1hlqzBv/x2fCf8ArPmY1K6cDApRMdAR+iIFbP26Lk42ttB+Ik1qasbZmco/u0c722OtuiK5dObdSb+OV9Oeh4dPjQqh8AsPR+r+hqMsovEzaMd3O7NuK2PY5ZfCqaE4tzOdbid62QR9QbDMcc651XCj94LN1wuPrZkXDSQqWh2mYxi378a/u/FicspAhg5C6QDxSk/bu9unMa/eFJ+VNZwfoDb9TJu9yaUmYlZdDq+GZ/Ev+jHWNP+DbP8clTWvGFnbxKsSVLA1guDQnxeOKxPI3PhNyc8h9N8v2Sfg5ALqq5CBauwpv/78D0ONGHX3QzKGiUg7Xa+iI6lqYr8GuC4xTpPm60pyVG090mhhF1NQtfuDktB+JwMmF4qVKJF1alnqqtACdbU63B7tqC7t0CsHfvwrbIQKLtwVJaTyj8ZlXfikGRnrO5XmKXnD203glUYNR9BOwOi1N3+AsbBxBr1FfkirJcOmzaZEF+PmgFq4iqqkuEkMEveMTQ9GpnTMIvPxu3bI4KE4Xrc3h0YeUtx+qWKioTZwsAba/V53DqaaaghftkpMzR9A+BqLbkFShi4mQH5N1VN2EGoQAlm6UXEenbLQ4y0Yjfeib/wdPAPD6HKDGJN+SDRLgkt6b59OK1PYJacO/p8ZgbkLIL+g4QjNo3hKk8hvryMSdqf2luIL9fZidHbi85dkXCh5PYfxI22oeInMIrPGEUUMKuvxY20ykIBsBvuwCy7eKj9OtyA0/wPjGnXT6Lhrx5eFTUhv6UozFYU5yjK8xXlefL/TL9Ku5MNwpryfnyzPocyg+KH6t5I7OBPRgnxDfrczKLT4kXKHNzWx9Ejwj062onTsZ7Y1n/H3v01AqqbqmCjp2je7mZFXyS99vZF5Div8/nsZkLbvkjslY/htD6FjrSNylLXbhSn/jco1xbRvpwF4+jbypcrU+gIQULds1W05OLXset+lbZA4auNN7Rs1VgIVWjV0N/OkXtwGm4ftY+yslFDlGchDOp4/NPt24+974fEtv2H5IfqGKayyTYTswEe3Z5wkyeSxUizzR5MZeN2PEds15eI7f0WbsuD6Kj4/9yuLbidGwAXjAzM4jWj5KuG7zEXa8qHhhdJfXvR/QfBiPPo3RhO21PpNRzxAaZa8S5dHHcN21cVVhZm5VXo/gNS8MKN4rStxSi9SHxpgPLlYxSfJVVSIi3o6FGc1sdx+/biHLkH3b1h1CmzAw6rpnfxdJc3IeDO9XBiTWIF8ZHY0SgF1RJhbu4ess24oW734rY+itv1MkbBSsySNSL1EBX1SpU5HaN4tWdOgDL9GGUXYXRtwO18HrClPJGZEbfPHHT3K1BxedL29g3AC/vF8V7fFi+2pkWHONOvOWWmYlapJBQdK14VfbRXC0opVKAc5S/C7d0Bdi/Y3ehoGypnEconSQsqUIbu2YYOHZQSPX37pARjqG6czeVWfxyn8AKe2JdHv4ed3hWCnrBi+XSxMROhrRdufETCUWNL9IAkGF97Tg2F+TmYvcMliHAHcPsP4Ha9LCrhcd+Zkb8Ms/qaxJIOVjbKDKJ7tspz0DZSfE2DdsENYeQsSij88qun4AcPwkNbJfa8qV703/Y0w/ZGKRD34kHFo9uFb3dijU6pqEcivKk6GsQjAdlzcHt24Pbtl9VX/z4UBkbesnh9JyUOzM5NUvrGjUhCsdagTJS/FKP8MvxLfoa/9AyysnKoParY2zxeR8TVmn0t8iKmFMqv3TJk8RO1NV0h2HoIvnq3dDLXYxXgM8X1c+HSIMVTTsWquhrtRtHRdqno4jrghobL9CgfRv5SzLyTwAgkqBJjYGTNjJMoN8X9gmLvaY1EC5SFUbByKGw3ENPcsxGu/61Iprb2CHHTi+Dgaj1E6ny5Fv74ghAJphQJYcJIc5V03DtaOCraHPuahaW6pV6Uglq6JVzlM6TewLFCBUql8lu0RRYHkWaM3EUoMxPnyL04jX9FR5pQ8WTcwUq8ZtEqfHP+E6v6apSVhVKKDJ8BKDbUKkLRsRWF5fjmbsWLBxU7GhWNHYqGDnh2j+LOlxR3rFfsbxm9/8jPtBLFf1+umFFmyndWFmbxGRgFp0iFF2WhY60o4gF57UD4EDp0AKVB+QpQlrcakpFRKbmvkSPj2oyyMPKXovzF9IbhzhcVv31acbRXnkXySsqjn1vUVmyuVxw4qphSqCjNGU8eSPq+JsPe8ILtDFdO2d4IXf2amKNGVU4J+mFOGVQVit2TTnU0LzidLxPb8cU4cwNRpA5OwW17Ml5bfPTDMKdej1l+iafwS28YfvKoJJyMpP14sTGSYez+hpJyg8mqENtN9xDb8/Uhxu2oc/gKMApOxSw5H6PwVE92htP5ErHNHxrfBn8xau4P8Bev4E/rFT95JDViqtd9jMRJNXDDu70LqCXCcRnR1u2Hb9yr+PtGkbFq7xNDcyA23NBwVG6ytk3m/421cd5avC7UZKD8xRDtQPfEhZKjrTLKjQjBjHrphadjlV3gea6ATwz+I13jiY/HUoH4wiXw2QuS23dO84Po7hFCzpkzwI67J9wBdP9B3O4N4ow1M1GZY0ph+/LRcSHpUW1wQmgjk7WNi/nhw0E608zMS3TfR7qFjXNOGlGTY+povWHNXS/Bt+8TXtboEtHJB8pQVMpibzss835l/kihlBShpTan07FuFDUakBeSu0jUduLhHKdrM9aU96MM77eeGRBnc1cIDrQM5gqkO+DL/gEL3rVMFB+LkhS3126U6MGfQESSZo38kwks/RUqcyY62iFx3XgdLB2qwzn6KE73Rql0Z+WAEcAwA6i8pbihw+hQ3Sg786H90/n2c6tpCyW2V/yWzDbFOZBhSZVl0AmFfECYO30Dks+bynubdEfrj2i+94DizhcVHf3J5/hEH42ivU+xr0VRXaiYWpTaNKWdELr7FZymv+Ec+CFKx8ad2yq7FP+C76J8Bbgdz8m0pDUqWJ2UORH0KxZUiaO2tlURcya+j7H3nRVQXLZM8Yk1itLc5PfjHn0Mp+FPYktaWfhmfAaVuxgzd0G82G0FygmD04vSURSuFCRrexLdfwClDCkdmVEpquXdG+L8NEVXrIBfH/gYu3vmJWxvWZ7iiuWKCxYrPrlGsXquYuVsxZRC6BnwfrdKKRyt6BtQLJkqNKmJMOmO9peXFL98kqQ1t1Odctp6Ye8RCbZXFUzwYsKNOIduxam/BadtbcIQkcqoxCw+W+TjuzdDROZDw1+EWZKAYhFHToYkN9cUiTByY2fqI+2KmfCRMxSXLxe9tGTQ0U7sgzei4+UijYJVIm3vEzaGMjMxchei8pahAhWywo62g46J2yZ0ELfrJRFNRmPkzAMNbt9eFDZrj57N3Q1XMuAEx70LvyW21ofPgGtXwfLpop5eXSiumOXTYUGlwjTEz+alS9wfgfy4PtxEMqyT6mjr9sMPH0xcvGEQ6dg27X1Sh33VbEVOglHe7d6Cvfd7uK2Pxtm0wyOgyp6Pkb98qAa5HmgW523hSoi2xYWFNTh9GLlLJhQWzg3Cwmp54PMrFNkZYlN6+dqyAnDREqk1f9UKuYdUxG7co4/iHLkX3DBKKcyKK4RFPCbXVPnyUDnzMApOxsiajRtpFtYxiA0XOoDbvREdqsfIOxG3ewvhqOahI5fwYodEUsa+i4o8+MqlolIZ9FC9MgxFRb7wDQ91yFQ5dtnouPI8lk0TMmwypB0ZiMQ0tz2nkmY6BX1wykzRc50WL9u0vxleii8AEql272iUXISPnT3sHBQS4G7sul/hdr4Ud2jG79jIQGXNwJr2MVThaSg3SnTgiCz33TCxgzeBmYFRdBaqbS26Z7sEnY/cg8qZn5Ku2NQiRXWB5pKlmqgNUUex58jwS7NMmF+h8Vsav6VS/nHpOKcMO86H95eJzH0CB60yfKhgNTqjkkDJOThHH8Npugsd2i/JK9E2STdsfw6sLDqjBezpnet9LiU8u5On6wntq7xMGfWe2ZOgBmmCH99YpNXRojY88IpiR4P3dp8pTs3LToJ/OU1+6SPRFZLcz7te9l5mh6JSS2nNAs2cCoU7cBS3+T7sw7+D2JgEBV8hVuWVWFVXDvGxtA5iVf8LsX0NEGsHJ4TTdBfmCediFJ4mOZ86itu7A923D5XEVhsJw1AEDEUgTmtaNc47okhXmE+H6nAHNduUhVFwCkb+iRMeN1hNxqq6ArPkHJzWx3BbHsLt2xmPEEQgOkCvPZ/GsDdrOC8oQs6ptnleBVywCP7sEV5r6ZapdZmbvNOm1dHaeuGx7XA0QdHeacXwtXcJfz7oH3/R/Ey47gyhPd/ytPcvZH8LrNtnkxneREnfneiOZ4YpzQBWDkbRWZhFqzFKzh+qYwlxb3nxaqxIkyR2RFrRoUPYh26V4LSVA7F2dKQFt28PKnv266KWqN0obvu6YQUkXz5m6TsSJqokgvIXYFVdhS48DaftKRnRel4Bu5+I46c75m2lL5+WfptXzfbuaABNXRBzIZCEopF2R6tLUFXEZ8KlJ0qSSTKU5Ii8aHdYRrexCEVh5+6NnBX5Aa6xZ5Sxr/KWYs34LEbWzITaYMrKway8Crd7M07rk+D0yahWec1wp4q24XY8j1l8JrweGmORVpzWh4fS6Iy8pRiFKyZ9OhWswqy6BqPoDNyujTiNfyHa6afX9u5oxTnpX2OaB9U+HaRFE2rt1dQe1Wg9/nPNqZoPnZ6azynoh0+cq/GZo88B8u8rR0ro7nfj3yu0mYsqXoNv0U8wC06ZUIBO+XIxy98FgUo5R6wHp+0pjKIzh67lHH1sUvJVxwM62orbvWWoLUbhqpQLbiSEUvHVqosTPoTCxcAe9VwHP156IBOhrs37vWutJXQ2wfEpj2iuq+mNxLVvPM5alsuQDZMKMnwiGrNthL03WLCrx84j6vpR/nzMotVYlVd6FgpLBrP0PPwoYru+Ilr+of3ojHJheNi9gI1TdzPGCb9O2/N/rHBan0LhyoO0cjALjq0ukBuqx+18CafxDnTfbpTWZFtlVAabaAhPHVcIbWNd+tfY3qgSupKyAoOU98RIuaPFXGhKkjC8fBISXQurRne0QbRHS4iQh1V1Br4Ryjnpwig+C7PkPJzBIl/tz8YLP4iR6XY8j+7dgcpNvWJvc/foZOjyvPToM3qgZXSGU8kFqMxpKR8/6lzhRpz2Z3BbH4vX8hyGaRgUBB0aPBZd9e2ywk+FYwdiMm1PsADMyZCEHMtM/gyOG/ExWaGxRMhNMlto7eJ2rie6owmz+Kw4CTC96UUZFmbV1bj9e9C9O+XL6Gh9VLdnmxQ1S4K+ASmf+PRuMXxH+pNyg4qyXLFNl02D8gnsefvI3cNt8JdiVrwr7RFVOxGcxjtwWh9H9+0eLXQDUHwBuTP/lZn95WzzUKLUGm58FL55RWq6ww+8kpg5PK0kNZvvuAnxTVShzgutCRjU5YFGMo1u3O6dqJ5XcNuekLS7qR+W3EwjgDIzUnpBKnch1qwvYu/7nhALx8Bpvs+zBkHM0YQi8Ltn4W8bpO5oKDJW0EVgGVL1JegTyYTrVkvc1DfmV661IwuUOIzseZ5UbS9o15HQW9uTxGpvFsbKyNW4mYWRu0TqsWfPY6qVzeouxbP7ZUQai4118I/NcPUpWqY+j1E5EtOsP6D484venDXTEAZHaQqdNeWONlKIz0usZe0uOGveeN9ZIjR3wd/H6+ABkJOhsQLZSPd2wenD7XoJt+slMLMxis8Ruk/OQpQ/eZxHKROzYAVu4eki1KdHD71ufy1O832jamb2R+C+zYqfPSYLoIn6s+3KqNc3AL94Au56SfHJ86Tuwsjnobu3wKCkluHHyFsK1sRvyQ3V4XZtwDn8B3T/vtEUHn+x/AinfAizcLStN79SfGDr+sf/QPoGJLrzyDbFJ86V6c9vykKtPwJNXUL7euiVxIPIlELxNBQmycsdRFpTZ1ZAhkkvcZdHt0s1uEsn9jkCQiVOxISbM7WI7FkfQ0VLUaGDIs7ixLn2Th9uy324nS9gFK7GyJknBetzFyXV3DcrLsMNHUK3PTZ6g90tmVJFIi0/ENPcu0nxm7UiTjMZtPWJ60ZrePdyTYZPoe1+nJYHhXYOqMyZGEWnJ22zG27E7XgOt+XB4dqcg7DyMIpOxyw+W8QKzfH+wJmlcPWKYSkxL2w9DF+7B2YUQ1aG8AYH60k0JYn++EwxFapSdP2l1dHK86TxXh0tYotDb065VIVLhu0N8OzexNtnVQSpmXkqyp4L0Rbc3j24LfeKcs4g1yzahnPkbtwWPyo4BaNA9NOM3BNQHgVgjaxZ+GZ9jljfLqkpNQI60ko03EogUMJ9mxQ3PyUP+1jQ1AU3PwWWobhqBUR69qE6X5QR1QxiFJ42KrN+VHvsfpymu3DanhTbcowNZpZeiFl5eXxEL0zajtPmSBz29iRafS3d4+9XVqqJj1lYBZ9cMzFxYKjN6QTVswMiqLepbrzxrzUc7YaGTphVCrlBKTZmKNnmaujql8rDNz4iK5/x9o5mVhm8fxVUFxooK1MKWGTNlmhAxeUQKEcPNKHtfjSuCCrHOkUqoeMFkaeye1GBCrTySY7AYODdlw+ug9O5fhy/vj/jZNYdLudb//CPsWkmx0cDmZ4218P0whA59m4CbXfKtJdRjW/GpzEyhqVDtXbBGcBpeYjojv+D2/YUOlQvOr0ARgZG/sn45n8Ls+IKzJw5KHPiyL3fkrLi6+K2Wup86sQ7Bnyil3LStFeRyt3aC1+5S0akZEeet1BTmqc4cSo4WobuO9cLwzYRLEPz/lWKL1+avA060orTcj9O2zNStzPSPJzYMRJZs/FN+RCqYDkqUCYqirEu7IM/ExeDExqyd0LBVXzuxS+w7si80dcaYQ9l+sUeKcgSWyYclfvq6B8mfXpRoGcXdvDFE+9ihXUjWmvMghX4T7p1aPuQDXboNnTogLcNNvXDmAUe9SVTRGOnEFTX7xfq00Twug+fKavUT58PF5+gJ3RpjMSkcgb+vhG+8ffkDU6Xaw9StufzFyYvqjr6Gi66Z5vkbXY8J4XFRuijaa1RZgZG7lKptJJZg1m4EtwYsd034HY8g9aazmghdxy6ljsOvZ9eO3fMNeQ+KvLhXSfBydNhToWE0lrjPLqXa2Vhc6TL+779RpSrp/6ZT8z8CRnmAL65/4VV/T7ccANuxzopitazefQ1/YWo4FTMisswK94zSoBwsjjSJbbj3zeNZUN7Pdsx+RaGuHCuP0tss1R0U0ZiUh2tJwy/fQZufjLxPul2tKoC+PV1mlll6XvptROW4g798ZGh7UkJno9pg7byMfOXY5ZegB5owj70v+hYF3t65/PNnTewvXuJ533MLFN8ao1wt7xW1f0R8bH99HE40OJ937Ozd/O1hTewpLwT/4m34LY+GQ+Cb0U74VHHqKKzMXLmi15tcMqxh6dGoLlLFgC3r4P1SQr+jXx2lflw+TK4YPHE9nciTOpnkhuED5ym2dcMT+xMNIV6C514oaZYMoVmTrJaszKDqNzFkLsYo/hMjIrLcJruwm59HJwBBgWVdbQTp/UJnK6XRbJK+dAoDvTNZF/vHG+hl6Dmw6ulTnqiqSIrAOcvkjzIHzygPQuzdUUL6IrmQzCH6OaPSkZ63MjXWoEypSxi1lysaf+KMrNQVgp+gzRRni+fpTWazfXw8kERsW7rG36PSkHA0qxZfSBU6wAAA/tJREFUJEVK5pbLO/Ji5KSKY0q3a+6Cnz8hafVHukaHZlIZ0XymGKqfe8fkQlgTQWuN2/4cTtOd6N69uHYPyhntJe6NZfHzfZ/mjsP/4nmOr12muXZV6g/4W/dp/vC89/7vnfIHPjH7JnJ8I3wNviIIlGNVXy0sjhH1A15rdIfEnk7FL5YujmniL8+HL1woPpefPZ58KB6Lwiw4d4EQJCc7HE8EpRRm8WqM/KXovr24fftwWx/H7d0OtnS4iJtBcyRBPUfg5AloT2Nx1SnwhwTFOpojlUTcDHLoB1+hyLlXXYnKnI6Zvyy9C70KyDt+M/Q4HLOFmZcpL+PLl8Kze2Q5v71RRruxCFhiUM6tEDG+U2cmV3s8XlBWDip/GUb+MtzC09B9u9D9tTjtT0FrY8LjKvKhqiA9Ib6qAk1FvjfVvTVSTMT1g5WLVX0tRvGZqMzpKbkp3uw4bkH1eRUwo0TzrmWyWBgsbjESi6s1+VmQHZC4YNp5nMcBRuYUyJyCdqMY5ZcQPLSWpk3e83ZeMF2CtuyfF/SuHpNr9ZBbsRr/nGsljc56YxcKO544rrJVfktRkiNLf4AF4xz0r33HSgRl+OPM1KuorvaxZ+f4fSKTYKTYriRTeyFYthr/3FMxstL0DfwT4E0lxPeqwLDISTBz1bZBW196P46Drcn3j7lvLkm644W3fEfzW8MjsBfu25x4mxd++UTibfMrj4+S0psRb/mOlmFJgDjRkv7ulyVOmArW7YdXDnlvK8yS62T43jjmw2uJt3xHMwwJec0aXxoTgMYuuOEeePAV6A55uxy7Q5oHX5H9Ein2zCrzLtrxVsFb02AYg5mlwqXb3jA+Bqg11LVJkddzFijOXySB5cyABNO7+uGxHYond8rfXvSaTL+cf7KRj38GHDchvjc7Gjvh324THdeRGBvhKM+Dsjxx0bT2SkcbmVDtFRGZWwG//ODkyhj9s+DtjjYCD2+FL/xZKr4M4lgVH30m/OgaeMf4eP1bCm95G20kzl+k+f5Vmkz/+KTmVD8j98/0a64/S3P+ord/y2+PaGPQN6C5fZ3ijvWJ+WXJMJK/9t5T4dqVOuXqeP/MeLujeSAcFVfFPzbDI9s0zv9v7w5xEAaiKIq+bwiuaYJpSsIGQCLYADvAsE48noQEAziCQiDRhUEMDkJT8wTcoyuvmebPn9RhklRJ42FoOcv7az/tHvtHhPbF9SatdknrY2hzav++LqXFNGk+CdVl9ynUX0ZoLZp7XsC3PYcOl/wLZP8a+BgN8kqAqsjvwVfFQ/1evF0cBqHBhFMnLAgNFoQGC0KDBaHBgtBgQWiwIDRYEBosCA0WhAYLQoMFocGC0GBBaLB4Ak42Nr/2NE/5AAAAAElFTkSuQmCC;" parent="1" vertex="1">
          <mxGeometry x="1569" y="829.1" width="83.61" height="80.9" as="geometry" />
        </mxCell>
        <mxCell id="jUXCTBX1vc5QMKHOYlBD-38" value="policy&amp;nbsp;" style="text;html=1;align=center;verticalAlign=middle;resizable=0;points=[];autosize=1;strokeColor=none;fillColor=none;fontSize=21;fontFamily=Times New Roman;fontStyle=1" parent="1" vertex="1">
          <mxGeometry x="1571.61" y="899" width="80" height="40" as="geometry" />
        </mxCell>
        <mxCell id="jUXCTBX1vc5QMKHOYlBD-39" value="&lt;span style=&quot;color: rgb(0, 0, 0); font-family: Helvetica; font-size: 19px; font-style: normal; font-variant-ligatures: normal; font-variant-caps: normal; font-weight: 400; letter-spacing: normal; orphans: 2; text-align: center; text-indent: 0px; text-transform: none; widows: 2; word-spacing: 0px; -webkit-text-stroke-width: 0px; white-space: nowrap; background-color: rgb(251, 251, 251); text-decoration-thickness: initial; text-decoration-style: initial; text-decoration-color: initial; float: none; display: inline !important;&quot;&gt;$$\hat \pi^*$$&lt;/span&gt;" style="text;whiteSpace=wrap;html=1;fontSize=19;" parent="1" vertex="1">
          <mxGeometry x="1598" y="912" width="33" height="67" as="geometry" />
        </mxCell>
        <mxCell id="jUXCTBX1vc5QMKHOYlBD-41" value="&lt;font style=&quot;forced-color-adjust: none; font-family: &amp;quot;Helvetica Neue&amp;quot;; font-size: 17px; font-style: normal; font-variant-ligatures: normal; font-variant-caps: normal; font-weight: 400; letter-spacing: normal; orphans: 2; text-align: left; text-indent: 0px; text-transform: none; widows: 2; word-spacing: 0px; -webkit-text-stroke-width: 0px; white-space: normal; background-color: rgb(251, 251, 251); text-decoration-thickness: initial; text-decoration-style: initial; text-decoration-color: initial;&quot; color=&quot;#050505&quot;&gt;... Player in possession of the ball.&amp;nbsp;&lt;br style=&quot;font-size: 17px;&quot;&gt;&lt;/font&gt;&lt;span style=&quot;forced-color-adjust: none; font-family: &amp;quot;Helvetica Neue&amp;quot;; font-size: 17px; font-style: normal; font-variant-ligatures: normal; font-variant-caps: normal; font-weight: 400; letter-spacing: normal; orphans: 2; text-align: left; text-indent: 0px; text-transform: none; widows: 2; word-spacing: 0px; -webkit-text-stroke-width: 0px; white-space: normal; background-color: initial; text-decoration-thickness: initial; text-decoration-style: initial; text-decoration-color: initial; color: rgb(5, 5, 5);&quot;&gt;Carrying the ball to the available ...&lt;/span&gt;" style="text;whiteSpace=wrap;html=1;fontSize=17;" parent="1" vertex="1">
          <mxGeometry x="558.75" y="1083.63" width="298.25" height="57.74" as="geometry" />
        </mxCell>
        <mxCell id="jUXCTBX1vc5QMKHOYlBD-44" value="&lt;span style=&quot;color: rgb(0, 0, 0); font-family: Helvetica; font-size: 17px; font-style: normal; font-variant-ligatures: normal; font-variant-caps: normal; font-weight: 400; letter-spacing: normal; orphans: 2; text-align: center; text-indent: 0px; text-transform: none; widows: 2; word-spacing: 0px; -webkit-text-stroke-width: 0px; white-space: nowrap; background-color: rgb(251, 251, 251); text-decoration-thickness: initial; text-decoration-style: initial; text-decoration-color: initial; float: none; display: inline !important;&quot;&gt;... Together with the general principles, &lt;br&gt;the operational ones&amp;nbsp;&lt;/span&gt;&lt;span style=&quot;forced-color-adjust: none; color: rgb(0, 0, 0); font-family: Helvetica; font-size: 18px; font-style: normal; font-variant-ligatures: normal; font-variant-caps: normal; font-weight: 400; letter-spacing: normal; orphans: 2; text-align: center; text-indent: 0px; text-transform: none; widows: 2; word-spacing: 0px; -webkit-text-stroke-width: 0px; white-space: nowrap; background-color: initial; text-decoration-thickness: initial; text-decoration-style: initial; text-decoration-color: initial;&quot;&gt;should also ...&lt;/span&gt;" style="text;whiteSpace=wrap;html=1;fontSize=18;" parent="1" vertex="1">
          <mxGeometry x="557.75" y="1147" width="281" height="40" as="geometry" />
        </mxCell>
        <mxCell id="jUXCTBX1vc5QMKHOYlBD-45" value="$$b_i:$$" style="text;html=1;align=center;verticalAlign=middle;resizable=0;points=[];autosize=1;strokeColor=none;fillColor=none;fontSize=19;" parent="1" vertex="1">
          <mxGeometry x="487" y="1083.6299999999999" width="100" height="40" as="geometry" />
        </mxCell>
        <mxCell id="jUXCTBX1vc5QMKHOYlBD-47" value="&lt;font style=&quot;font-size: 17px;&quot;&gt;...&amp;nbsp;&lt;/font&gt;" style="text;html=1;align=center;verticalAlign=middle;resizable=0;points=[];autosize=1;strokeColor=none;fillColor=none;" parent="1" vertex="1">
          <mxGeometry x="520" y="1122" width="40" height="30" as="geometry" />
        </mxCell>
        <mxCell id="jUXCTBX1vc5QMKHOYlBD-48" value="&lt;span style=&quot;font-size: 17px;&quot;&gt;...&lt;/span&gt;" style="text;html=1;align=center;verticalAlign=middle;resizable=0;points=[];autosize=1;strokeColor=none;fillColor=none;" parent="1" vertex="1">
          <mxGeometry x="682" y="1122.26" width="40" height="30" as="geometry" />
        </mxCell>
        <mxCell id="jUXCTBX1vc5QMKHOYlBD-49" value="&lt;b&gt;About the State Space&amp;nbsp;&lt;/b&gt;&lt;br&gt;for each state, we first provided score and &lt;br&gt;..&lt;br&gt;&lt;b&gt;About the Action Space&lt;/b&gt;&lt;br&gt;we have 18 discrete action, 0 for idle, a no&lt;br&gt;..&lt;br&gt;&lt;b&gt;&lt;br&gt;&lt;/b&gt;" style="text;html=1;align=left;verticalAlign=middle;resizable=0;points=[];autosize=1;strokeColor=none;fillColor=none;fontSize=17;" parent="1" vertex="1">
          <mxGeometry x="517" y="1246" width="340" height="160" as="geometry" />
        </mxCell>
        <mxCell id="hmJT-HX0_6O_MLCqKVgj-1" value="$$b_j:$$" style="text;html=1;align=center;verticalAlign=middle;resizable=0;points=[];autosize=1;strokeColor=none;fillColor=none;fontSize=19;" parent="1" vertex="1">
          <mxGeometry x="487" y="1151.9999999999998" width="100" height="40" as="geometry" />
        </mxCell>
        <mxCell id="Zlv9bYPHOYVSG-MM0NKb-279" value="" style="endArrow=blockThin;html=1;rounded=0;exitX=0.084;exitY=1.001;exitDx=0;exitDy=0;exitPerimeter=0;entryX=0.595;entryY=0.958;entryDx=0;entryDy=0;entryPerimeter=0;dashed=1;dashPattern=1 1;strokeColor=#000000;strokeWidth=3;align=center;verticalAlign=middle;fontFamily=Helvetica;fontSize=11;fontColor=default;labelBackgroundColor=default;startArrow=oval;startFill=1;endFill=1;fillColor=#e1d5e7;" parent="1" source="Zlv9bYPHOYVSG-MM0NKb-80" target="Zlv9bYPHOYVSG-MM0NKb-249" edge="1">
          <mxGeometry width="50" height="50" relative="1" as="geometry">
            <mxPoint x="952.5" y="1015" as="sourcePoint" />
            <mxPoint x="1002.5" y="965" as="targetPoint" />
          </mxGeometry>
        </mxCell>
        <mxCell id="Zlv9bYPHOYVSG-MM0NKb-280" value="" style="endArrow=blockThin;html=1;rounded=0;exitX=0.189;exitY=1.001;exitDx=0;exitDy=0;exitPerimeter=0;entryX=0.41;entryY=0.996;entryDx=0;entryDy=0;dashed=1;dashPattern=1 1;strokeColor=#000000;strokeWidth=3;align=center;verticalAlign=middle;fontFamily=Helvetica;fontSize=11;fontColor=default;labelBackgroundColor=default;startArrow=oval;startFill=1;endFill=1;fillColor=#e1d5e7;entryPerimeter=0;" parent="1" source="Zlv9bYPHOYVSG-MM0NKb-80" target="Zlv9bYPHOYVSG-MM0NKb-248" edge="1">
          <mxGeometry width="50" height="50" relative="1" as="geometry">
            <mxPoint x="948" y="1017" as="sourcePoint" />
            <mxPoint x="948" y="1085" as="targetPoint" />
          </mxGeometry>
        </mxCell>
        <mxCell id="Zlv9bYPHOYVSG-MM0NKb-281" value="" style="endArrow=blockThin;html=1;rounded=0;exitX=0.314;exitY=1.014;exitDx=0;exitDy=0;exitPerimeter=0;entryX=0.151;entryY=0.986;entryDx=0;entryDy=0;dashed=1;dashPattern=1 1;strokeColor=#000000;strokeWidth=3;align=center;verticalAlign=middle;fontFamily=Helvetica;fontSize=11;fontColor=default;labelBackgroundColor=default;startArrow=oval;startFill=1;endFill=1;fillColor=#e1d5e7;entryPerimeter=0;" parent="1" source="Zlv9bYPHOYVSG-MM0NKb-80" target="Zlv9bYPHOYVSG-MM0NKb-236" edge="1">
          <mxGeometry width="50" height="50" relative="1" as="geometry">
            <mxPoint x="970" y="1017" as="sourcePoint" />
            <mxPoint x="967" y="1172" as="targetPoint" />
          </mxGeometry>
        </mxCell>
        <mxCell id="Zlv9bYPHOYVSG-MM0NKb-249" value="&lt;font style=&quot;font-size: 17px;&quot;&gt;for dynamics&lt;br&gt;&lt;br&gt;&lt;/font&gt;" style="rounded=0;whiteSpace=wrap;html=1;flipH=1;flipV=1;strokeWidth=1;glass=0;fontSize=14;fillColor=#e1d5e7;strokeColor=none;" parent="1" vertex="1">
          <mxGeometry x="899" y="1074" width="114" height="57" as="geometry" />
        </mxCell>
        <mxCell id="Zlv9bYPHOYVSG-MM0NKb-248" value="for rewards&lt;div style=&quot;font-size: 17px;&quot;&gt;&lt;br style=&quot;font-size: 17px;&quot;&gt;&lt;/div&gt;" style="rounded=0;whiteSpace=wrap;html=1;flipH=1;flipV=1;strokeWidth=1;glass=0;fontSize=17;strokeColor=none;fillColor=#e1d5e7;" parent="1" vertex="1">
          <mxGeometry x="900" y="1169" width="113" height="61" as="geometry" />
        </mxCell>
        <mxCell id="jUXCTBX1vc5QMKHOYlBD-14" value="&lt;span style=&quot;color: rgb(0, 0, 0); font-family: Helvetica; font-size: 17px; font-style: normal; font-variant-ligatures: normal; font-variant-caps: normal; font-weight: 400; letter-spacing: normal; orphans: 2; text-align: center; text-indent: 0px; text-transform: none; widows: 2; word-spacing: 0px; -webkit-text-stroke-width: 0px; white-space: nowrap; background-color: rgb(251, 251, 251); text-decoration-thickness: initial; text-decoration-style: initial; text-decoration-color: initial; display: inline !important; float: none;&quot;&gt;$$\mathcal{K}_T$$&lt;/span&gt;" style="text;whiteSpace=wrap;html=1;" parent="1" vertex="1">
          <mxGeometry x="943.5" y="1082.26" width="33" height="40" as="geometry" />
        </mxCell>
        <mxCell id="jUXCTBX1vc5QMKHOYlBD-15" value="&lt;span style=&quot;color: rgb(0, 0, 0); font-family: Helvetica; font-size: 17px; font-style: normal; font-variant-ligatures: normal; font-variant-caps: normal; font-weight: 400; letter-spacing: normal; orphans: 2; text-align: center; text-indent: 0px; text-transform: none; widows: 2; word-spacing: 0px; -webkit-text-stroke-width: 0px; white-space: nowrap; background-color: rgb(251, 251, 251); text-decoration-thickness: initial; text-decoration-style: initial; text-decoration-color: initial; display: inline !important; float: none;&quot;&gt;$$\mathcal{K}_R$$&lt;/span&gt;" style="text;whiteSpace=wrap;html=1;" parent="1" vertex="1">
          <mxGeometry x="942.5" y="1179" width="33" height="40" as="geometry" />
        </mxCell>
        <mxCell id="Zlv9bYPHOYVSG-MM0NKb-102" style="edgeStyle=orthogonalEdgeStyle;rounded=0;orthogonalLoop=1;jettySize=auto;html=1;entryX=-0.05;entryY=0.513;entryDx=0;entryDy=0;strokeWidth=2;dashed=1;dashPattern=1 1;strokeColor=#000000;align=center;verticalAlign=middle;fontFamily=Helvetica;fontSize=11;fontColor=default;labelBackgroundColor=default;startArrow=oval;startFill=1;endArrow=blockThin;endFill=1;fillColor=#e1d5e7;exitX=1;exitY=0.5;exitDx=0;exitDy=0;entryPerimeter=0;" parent="1" source="jUXCTBX1vc5QMKHOYlBD-33" target="jUXCTBX1vc5QMKHOYlBD-37" edge="1">
          <mxGeometry relative="1" as="geometry">
            <mxPoint x="1577.9999999999995" y="869.8900000000001" as="targetPoint" />
            <mxPoint x="1429" y="854" as="sourcePoint" />
          </mxGeometry>
        </mxCell>
      </root>
    </mxGraphModel>
  </diagram>
</mxfile>
